<?xml version="1.0" encoding="utf-8"?>
<!-- Generator: Adobe Illustrator 24.3.0, SVG Export Plug-In . SVG Version: 6.00 Build 0)  -->
<svg version="1.1" id="Layer_1" xmlns="http://www.w3.org/2000/svg" xmlns:xlink="http://www.w3.org/1999/xlink" x="0px" y="0px"
	 viewBox="0 0 800 800" style="enable-background:new 0 0 800 800;" xml:space="preserve">
<style type="text/css">
	.st0{fill:#F79E9C;}
	.st1{fill:#DD4545;}
	.st2{fill:#FFFFFF;}
	.st3{fill-rule:evenodd;clip-rule:evenodd;fill:#FFFFFF;}
	.st4{font-family:'FuturaPT-Medium';}
	.st5{font-size:42px;}
</style>
<g id="xxx-word">
	<polygon class="st0" points="193.5,50.9 165.9,60 147.9,93.5 150.8,713.1 185.8,750 610.2,750 646.2,719.7 650,210 640,186.3 
		500.7,50.9 	"/>
	<polygon class="st1" points="495.9,60 495.9,198.6 640,198.6 	"/>
	<path class="st2" d="M650,210H500c-5.5,0-10-4.5-10-10V50c0-5.5,4.5-10,10-10s10,4.5,10,10v140h140c5.5,0,10,4.5,10,10
		S655.5,210,650,210z"/>
	<path class="st2" d="M650,309.7c-5.5,0-10-4.5-10-10v-95.5L495.9,60H200c-22.1,0-40,17.9-40,40v196.3c0,5.5-4.5,10-10,10
		s-10-4.5-10-10V100c0-33.1,26.9-60,60-60h300c2.7,0,5.2,1,7.1,2.9l150,150c1.9,1.9,2.9,4.4,2.9,7.1v99.7
		C660,305.2,655.5,309.7,650,309.7z"/>
	<path class="st2" d="M600,760H200c-33.1,0-60-26.9-60-60V550c0-5.5,4.5-10,10-10s10,4.5,10,10v150c0,22.1,17.9,40,40,40h400
		c22.1,0,40-17.9,40-40V550c0-5.5,4.5-10,10-10s10,4.5,10,10v150C660,733.1,633.1,760,600,760z"/>
	<path class="st2" d="M550,560H250c-5.5,0-10-4.5-10-10s4.5-10,10-10h300c5.5,0,10,4.5,10,10S555.5,560,550,560z"/>
	<path class="st2" d="M400,660H250c-5.5,0-10-4.5-10-10s4.5-10,10-10h150c5.5,0,10,4.5,10,10S405.5,660,400,660z"/>
</g>
<g>
	<path class="st1" d="M650,539.9H150c-22.1,0-40-17.9-40-40V346.3c0-22.1,17.9-40,40-40h0.2l500,3.3c22,0.2,39.7,18,39.8,40v150.3
		C690,522,672.1,539.9,650,539.9z"/>
	<path class="st2" d="M650,559.9H150c-33.1,0-60-26.9-60-60l0,0V346.3c0-33.1,26.9-60,60-60l0,0h0.4l500,3.3
		c32.9,0.3,59.5,27.1,59.6,60v150.3C710,533.1,683.1,559.9,650,559.9L650,559.9z M150,306.3c-22.1,0-40,17.9-40,40V500
		c0,22.1,17.9,40,40,40h500c22.1,0,40-17.9,40-40V349.6c-0.1-22-17.8-39.8-39.8-40l-500-3.3L150,306.3L150,306.3z"/>
	<path class="st3" d="M499.1,392.9c0.5,0.1,0.7,0.4,1.2,0.6v1.2c0.1,0.1,0.3,0.1,0.4,0.2c0.2,0.5-0.1,1.4-0.2,1.8h-0.2
		c-0.1,0.5,0.3,0.4,0.4,0.8c-0.1,0.1-0.3,0.1-0.4,0.2v0.9c0,0-0.1,0-0.2,0.4h-0.4c-0.1,0.5-0.1,0.9-0.2,1.4c0.1,0.1,0.1,0.3,0.2,0.4
		h-0.2c0.1,0.3,0.1,0.6,0.2,1c-0.1,0.1-0.3,0.1-0.4,0.2v0.4H499c-0.1,0.2-0.1,0.4-0.2,0.6h-0.4c-0.1,0.3-0.3,0.6-0.4,1h-0.4l0.2,0.2
		l-0.2,0.2c0.1,0.2,0.1,0.4,0.2,0.6h-0.4v0.4l-1.2,0.4c-0.1,0.1-0.1,0.3-0.2,0.4h-0.2V406h-0.2v0.2H495c-0.1,0.1-0.1,0.3-0.2,0.4
		h-0.6c0,0,0,0.4-0.2,0.2v-0.4c-0.5,0-0.9-0.1-1.4-0.2v-0.6l-0.6,0.2c-0.1-0.2-0.1-0.4-0.2-0.6l-0.6-0.2c-0.1-0.1-0.1-0.3-0.2-0.4
		h-0.4V404H490c-0.1-0.2-0.1-0.4-0.2-0.6c-0.4,0-0.5,0-0.8-0.2V403c-0.2-0.1,0,0.1-0.2,0.2c-0.3,0.1,0.1-0.1-0.2-0.2
		c-0.1,0.1-0.3,0.1-0.4,0.2c-0.1-0.2-0.1-0.4-0.2-0.6c-0.6-0.4-0.5,0.3-0.8-0.6h-0.6v0.2c-0.2,0.4-0.2-0.4-0.2-0.4h-0.6v-2.3
		l-0.6-0.2v-0.2h0.2v-0.2h0.6c0-1.1,0.2-1.6,0.4-2.3c0.1-0.4-0.3-0.6-0.2-0.8c0.1-0.1,0.3-0.1,0.4-0.2c0.1-0.3,0.1-0.5,0.2-0.8h0.4
		c-0.3-0.8,0.2-0.7,0.4-1.6h0.4v-0.6l1-0.2v-0.3c0.6,0.1,0.9,0.2,1.2,0h0.2v-0.6h0.8v0.2h0.2c0.1,0,0.1-0.4,0.4-0.4
		c0.1,0.1,0.1,0.3,0.2,0.4l0.8-0.2v0.2h0.4v0.2c0.1-0.1,0.3-0.1,0.4-0.2v0.2l0.6-0.2v-0.2c0.1,0,0.7,0.3,1.2,0.2v-0.2l1-0.2
		c0.1,0.1,0.1,0.3,0.2,0.4h0.6v0.2h1c0.1,0.1,0.1,0.3,0.2,0.4C499,392.7,498.8,392.1,499.1,392.9z M213.3,400.9v0.4h1.2
		c0.1,0,0.1,0.3,0.4,0.2v-0.2h0.4v0.4h0.6v0.6c0.6,0.1,0.7,0.3,0.8,1h0.4c0.1,0.5,0.4,0.5,0.4,0.6v0.8h-0.2
		c-0.1,0.3,0.2,0.3,0.2,0.4c0.1,0.3,0.1,1-0.2,1v0.2h0.4v1.6h0.2v0.2l-0.2,0.2l0.2,0.2h-0.2c-0.1,0.6-0.1,1.2-0.2,1.8h-0.2
		c0,0.2,0.2,0.3,0.2,0.8v0.2h-0.2c0.1,0.2,0.1,0.4,0.2,0.6c-0.1,0.6-0.1,1.3-0.2,1.9h0.4c-0.1,0.4-0.3,0.8-0.4,1.2h0.2v0.8h-0.2
		c-0.1,0.2-0.1,0.4-0.2,0.6l0.4,0.2c0.1,0.4,0.1,0.8,0.2,1.2h-0.2v0.8l-0.6,0.4c0.1,0.7,0.3,1.4,0.4,2.1h-0.2v0.8h0.2v0.2h-0.2
		c-0.1,0.2,0,0.5,0.2,0.6c-0.1,0.2-0.1,0.4-0.2,0.6h0.2c0.2,0.6-0.2,2.2-0.2,2.3l0.4,0.2c0.3,0.8-0.3,1.1,0,1.9h0.2v0.8h0.2
		c-0.1,0.2-0.1,0.4-0.2,0.6l0.4,0.2c0.1,0.2,0.1,0.4,0.2,0.6l0.6-0.2c0.1-0.6,0.3-0.4,0.4-1.2c0.6-0.1,0.7-0.3,0.8-1l0.6-0.2v-0.2
		h-0.2c-0.4-0.2,0.4-0.2,0.4-0.2v-0.8l0.4-0.2V425h0.2c0.2-0.3,0.1-0.3,0.2-0.8c-0.4-0.1-0.2,0-0.4-0.2c0.8-0.5,0.3-0.6,0.6-1
		c0.2-0.2,0-0.1,0.4-0.2c0-1,0.3-0.9,0.6-1.6V420l0.2-0.2h0.2v-0.4h-0.2v-0.2h0.4v-0.8l0.6-0.2V417h0.2v-0.2
		c-0.2-0.1-0.3-0.2-0.2-0.4l0,0h0.2c0.1-0.3,0.1-0.5,0.2-0.8l0.6-0.2c0-0.6-0.4-0.4,0.2-0.6c0.1-0.6,0.1-1.2,0.2-1.8h0.4v-1.2
		l0.4,0.2v-0.2h0.2l0.2-1.8l-0.2-0.2l0.4-0.2V409l0.4-0.2v-0.4h0.2V408h0.2c0.3-0.5,0.1-1.1,0-1.6l1.2-1c0.1-0.2-0.4-0.4-0.2-0.8
		l0.4-0.2v-0.6l0.4-0.2c0.4-0.7,0.2-0.6,0.2-1.4c0.6-0.1,0.4-0.3,0.6-0.4h0.8l0.2-0.4l0.4,0.2v-0.3c0.6-0.1,1.3-0.6,2.1-0.4v0.2
		l0.6,0.2l0.2-0.4c0.4-0.2,0.5,0.2,0.8,0.2v-0.2h0.6c0.1,0,0.1-0.3,0.4-0.4v0.2l1,0.2c0.1-0.1,0.2-0.2,0.4-0.2v0.2h0.8
		c0.3,0-0.1,0.2,0.2,0.2l0.2-0.4c0.7-0.2,1,0.4,1.4,0.4l0.2-0.4l0.6,0.2v-0.2c0.7-0.2,0.6-0.1,1.2,0v0.4c0.5-0.3,1-0.5,1.6-0.6
		l-0.2,0.4h0.2v-0.2l1.4,0.4l0.4-0.6h0.2v0.2h2.3v0.2h0.4v0.2c0.6,0.2,1.3-0.3,1.6-0.2l0.2,0.4l1.2,0.2l0.2,0.4l0.6-0.2l0.2,0.4
		l0.6,0.2v0.2l0.4-0.2c0.5,0,1,0.2,1.8,0.2c0.2-0.6-0.2-0.6,1-0.6c0.5-0.7,0.3-0.1,1-0.4v-0.2h0.4v-0.2h1l0.2-0.4
		c0.2,0,0.5,0.4,1,0.2v-0.2c0.3-0.2,0.5-0.2,1-0.2c0.2,0.3,0.1,0.3,0.6,0.4v-0.4h0.6v0.4h0.6v-0.4c0.8,0.1,0.8,0.7,1.4,0.6v-0.2h0.8
		l0.2-0.4l0.8,0.4c0.3-0.1,0.8-0.7,1.6-0.4v0.2h0.4v0.2c0.3,0.1,0.9-0.3,1-0.4v0.4l1.2-0.2v0.2h0.6v-0.4c0.7,0.1,0.4,0.2,1,0v0.4
		l0.6-0.2v0.2h0.8v0.2c0.5,0.2,1.5,0.1,1.9,0.2v-0.2h0.2l0.2,0.4l1,0.2v0.6l0.6,0.2v0.4c0.1,0.2,0.4,0.1,0.6,0.4
		c-0.3,0.4-0.4,1.9-0.2,2.5h0.2c0.1,0.5-0.2,0.7-0.2,1h0.2c0.2,0.6,0.1,0.5,0,1h0.6v0.4l1.8-0.2v-0.6h1v-0.6h0.8V406
		c1,0,1.3-0.4,2.1-0.6c0.1-0.2,0.1-0.4,0.2-0.6l1-0.2c0.1-0.2,0.1-0.4,0.2-0.6h2.2c0.2-0.7,0.3-0.7,1.2-0.8V403h0.8v0.4
		c0.2-0.2,0,0,0.2-0.2h0.2l0.2-0.6h0.8v-0.2h1.2v-0.2c0.9-0.3,1.7-0.1,2.3,0v-0.4h0.8l0.2,0.2l0.2-0.4c0.1,0,1.3,0.2,1.8,0.2v-0.6
		h0.2l0.2,0.4h0.2v-0.1c0.3-0.1,0.3,0.2,0.4,0.2c0.2,0.1,0.5,0,0.6-0.2c0.5-0.1,0.9,0.1,1.2,0.2l0.2-0.6h0.2
		c0.2,0.3,0.3,0.2,0.8,0.2v-0.4c0.5,0.1,0.5,0.2,0.8,0.4v0.2l1.2-0.2v0.2h0.2c0.3,0,0.3-0.4,0.4-0.4l1.9,0.2v-0.2h0.4v-0.2
		c0.3,0,0.3,0.4,0.4,0.4l1-0.2v-0.4c0.1,0.1,0.3,0.2,0.4,0.4h0.4v0.2c0.3,0,0.4-0.4,0.4-0.4c0.3-0.1,0,0.1,0.2,0.2l0.6-0.2v0.2h1.6
		v-0.2h0.2v0.2h0.4v0.2h0.2v-0.2c0.2,0,0.3,0.1,0.4,0.2c0.3,0,0.3-0.3,0.8-0.2v0.2h1.6v0.2c0.5,0.1,1-0.6,1.6-0.4l0.2,0.4h1v0.2
		l1.2-0.4l0.4,0.6l0.4-0.2v0.2l1.2,0.2c0.1-0.2,0.2-0.2,0.4-0.2c0,0,0.1,0.3,0.4,0.2v-0.2c0.9-0.2,0.7,0.7,1,0.6
		c0.1,0,0-0.3,0.6-0.4v0.4c0.7,0.1,0.5,0.1,1.4,0v0.4l1-0.2l0.4,0.6h0.4v0.2l1.2-0.2v0.4h1.2v0.8h0.2v-0.2l0.4,0.2
		c0-0.1,0-0.3,0.2-0.2v0.2c0.2,0.2,0.1,0,0.2,0.4c0.5,0,0.7,0.1,1,0.2v-0.2c0.4,0.4,0.2,0.8,0.8,1.2v0.2h0.2v-0.2
		c0.4-0.1,0.3,0.1,0.4,0.2c0.2,0.2,0.1,0,0.2,0.4h0.4c0.1,0.4,0.1,0.8,0.2,1.2h0.2c0.2,0.2,0,0.1,0.4,0.2v0.6h0.6
		c0,0.9,0.1,1.8,0.4,2.7h0.2v0.2H332v0.2h0.2c0,0.2,0,0.3-0.2,0.4c0,0.3,0.1-0.1,0.2,0.2c-0.1,0.1-0.1,0.3-0.2,0.4l0.4,0.2v0.2h-0.2
		v0.4H332v0.6h-0.2v0.8h-0.4c0.1,0.2,0.1,0.4,0.2,0.6h-0.2c-0.1,0.3-0.1,0.6-0.2,1h-0.4v0.6L330,417v0.6h-0.2v0.2h-0.6
		c-0.1,0.1-0.1,0.3-0.2,0.4l-1.4,0.2c-0.1-0.2-0.2-0.2-0.4-0.2v0.2H327v0.2h-0.2V418h-0.2v0.2l-0.4-0.2v0.2L325,418v0.2l-0.6,0.2
		v-0.2H324V418c-0.3-0.1-0.3,0.2-0.4,0.2l-1.2-0.2c-0.1,0.1-0.1,0.3-0.2,0.4H322V418c-1.4,0-1.9,0.3-3.3,0v0.4c-0.5,0-0.5,0-0.8-0.2
		V418h-0.2v0.2h-0.2V418h-0.7v0.2h-0.2v-0.4c-0.4,0.1-0.3,0.2-0.4,0.2h-1v0.2H315V418c-0.3-0.1,0.1,0.1-0.2,0.2
		c-0.5,0.1-0.7-0.1-1-0.2v0.2c-0.7,0.2-2.1-0.2-2.3,0s-0.1,0-0.2,0.4H311v-0.4l-1.2,0.2v-0.2h-0.6v-0.8c-0.7,0.2-0.5,0.1-1.2-0.2
		c0-0.7,0.2-0.8-0.2-1.4l-0.4-0.2c-0.2-0.5,0.2-0.9,0.2-1.2h-0.2V414h-0.2v-0.8H307c-0.1-0.4-0.1-0.8-0.2-1.2h-0.4
		c0.1-0.1,0.1-0.3,0.2-0.4h-0.4c-0.1-0.2-0.1-0.4-0.2-0.6c-0.5-0.1-0.5,0-0.8-0.2v-0.2h-1v0.2l-1.4-0.4c-0.1,0.7,0,0.6-0.6,0.8v0.4
		H301v0.4h0c-0.1,0.3-0.1,0.5-0.2,0.8h-0.4c0.1,0.5,0.1,1,0.2,1.6h-0.2v0.4h-0.2v0.8l-0.2,0.2l0.4,0.2c-0.1,0.1-0.1,0.3-0.2,0.4h0.8
		c-0.1,0.3-0.1,0.6-0.2,1c0.7,0.1,0.7,0.4,1.4,0.6v0.4c0.5,0.2,0.8,0.5,1.4,0.6c0.1,0.2,0.1,0.4,0.2,0.6c0.4-0.1,1.2-0.3,1.8,0
		c0.1,0.1,0.1,0.3,0.2,0.4c0.3,0.1,0.8-0.2,0.8-0.2v0.4l0.6-0.2v0.2l0.8,0.2l0.2-0.2c0.4,0.2,1.4,1,1.8,0.6v0.4
		c0.6,0.1,0.4,0.3,0.6,0.4c0.1,0,0.4-0.2,0.8,0l0.4,0.6h0.4v0.2h0.8v0.2l0.6,0.2c0.1,0.1,0.1,0.3,0.2,0.4l0.4-0.2v0.2h0.8
		c0.3,0-0.1-0.2,0.2-0.2v0.2h0.6l0.6,0.8l0.6-0.2c0.1,0.1,0.1,0.3,0.2,0.4c0.5,0.3,0.3-0.2,0.6,0.6c1,0,2,0.3,2.9,0.8
		c0.1,0.1,0.1,0.3,0.2,0.4h0.6c0.1,0.1,0.1,0.3,0.2,0.4c0.3,0.2,0.7,0.5,1,0.2v0.4l0.8-0.2v0.6c0.4,0.1,0.5,0.3,0.8,0v0.6l0.4-0.2
		v0.2l1,0.2v0.6h0.8v0.4h0.4c0.1,0.5,0.1,0.4,0.6,0.6c0.1,0.7,0.2,0.6,0.4,1.2c0.5,0.1,0.4,0.1,0.6,0.4h0.2
		c-0.1,0.1-0.1,0.3-0.2,0.4h0.2l1.4,1.2v0.2h1.2c0.1-0.2,0.1-0.4,0.2-0.6l0.4-0.2c0.1-0.3-0.1,0-0.2-0.2V432h0.2v-0.8l0.4-0.2v-1
		l0.4-0.2v-0.2h-0.2c-0.1-0.2,0-0.3,0.2-0.4c-0.1-0.3-0.1-0.6-0.2-1h0.4v-0.4h0.4V427H333v-0.2l0.4-0.2v-0.4h0.2
		c0.1-0.3-0.2-0.3-0.2-0.4c0.1-0.4,0.1-0.8,0.2-1.2h0.2c-0.1-0.1-0.1-0.3-0.2-0.4l0.4-0.2v-0.8h0.2c-0.1-0.2-0.1-0.4-0.2-0.6
		c0.1-0.2,0.1-0.4,0.2-0.6h0.2v0h-0.2c0-0.4,0.2-0.4,0.2-0.4c-0.1-0.2-0.1-0.4-0.2-0.6h0.4c-0.1-0.3-0.1-0.5-0.2-0.8h0.2
		c0.1-0.6,0.2-1.5,0-1.8l0.6-0.2c-0.1-0.1-0.1-0.3-0.2-0.4c0.1-0.4,0.1-0.8,0.2-1.2c-0.2-0.1-0.3-0.2-0.4-0.4l0.6-0.4v-0.6l0.4-0.2
		c-0.1-0.4-0.3-0.8-0.4-1.2h0.2v-0.4l0.4-0.2c-0.1-0.2-0.1-0.4-0.2-0.6h0.4c-0.1-0.1-0.1-0.3-0.2-0.4c0-0.2,0.2-0.3,0.2-0.8h0.6
		v-0.2c-0.4-0.1-0.2,0-0.4-0.2c0.5-0.4,0.3-0.7,0.2-1.4h0.4v-0.8h0.2c0-0.2,0-0.3-0.2-0.4c-0.1-0.4,0.1-0.3,0.2-0.4
		c-0.1-0.2-0.1-0.4-0.2-0.6h0.6V406h0.4c-0.3-1,0.3-1.4,0.4-2.5h0.4v-0.2h-0.2c0.1-0.3,0.4-0.3,0.8-0.4v-1c0.2-0.2,0,0,0.2-0.2
		c0.7,0,1.5-0.1,2.1-0.4v-0.6h0.4l0.2,0.4c0.3,0.1,0.3-0.2,0.4-0.2c0.4-0.1,0.5,0.1,0.8,0.2c0.3-0.2-0.2-0.3,0.2-0.4v0.2
		c0.2,0.1,0.5,0,0.6-0.2l1,0.2v-0.2h0.6c0.3-0.1-0.1-0.2,0.2-0.2l0.2,0.4c0.5,0.1,0.5-0.3,0.6-0.4l1.9,0.4v-0.4h0.6l0.2,0.6
		c0.4-0.1,0.4-0.2,0.4-0.2h1v-0.2h0.2v0.2h1v-0.2h1.4v0.2h0.2c0.1-0.1,0-0.3,0.2-0.2v0.4h0.2V401h0.6v-0.2l0.8,0.2v-0.4
		c0.6,0.1,0.4,0.3,0.6,0.4h0.6v0.2c0.5,0.1,0.5-0.1,0.6-0.2l1.8,0.6c0.3,0.3,0.5,0.6,0.8,1h0.2v0.8h0.2l0.2,0.4h0.4v0.2
		c-0.6,0.4-0.3,0.4-0.2,1.2h-0.4v0.2l0.4,0.2v0.2l-0.4,0.2v0.6h-0.2c-0.2,0.6,0.3,1,0.2,1.4l-0.4,0.2v0.6l-0.2,0.2v0.2h0.2v0.2h-0.2
		c0.1,0.3,0.1,0.5,0.2,0.8h-0.4c0.1,0.3,0.1,0.6,0.2,1h-0.2c-0.2,0.2,0,0.1-0.4,0.2c0.1,0.9,0.1,0.9,0,1.8h0.4
		c-0.1,0.8-0.1,1.7-0.2,2.5h-0.2c0.1,0.2,0.1,0.4,0.2,0.6c0.3,0.2,0.3,0.3,0.8,0.4c0.3-0.5,0.4-0.5,1.2-0.6c0.2-1.3,0.6-0.6,1-1.2
		v-0.4h0.4v-0.6c0.5,0.1,0,0.1,0.6,0v-0.6h0.4c-0.1-0.1-0.1-0.3-0.2-0.4h0.2l0.6-1c0.4,0.1,0.2,0,0.4,0.2h0.4
		c-0.1-0.4-0.1-0.8-0.2-1.2c0.2-0.2,0,0,0.2-0.2l0.4,0.2c0.1-0.1,0.1-0.3,0.2-0.4c0.6-0.5,1.4-1,1.6-1.9l1-0.2v-0.6h0.2
		c0.3-0.4,0.8-0.7,1.6-0.8v-0.6h0.2v0.2c0.2,0.4,0.2-0.4,0.2-0.4h0.6V406H371c-0.4-0.2,0.4-0.2,0.4-0.2v-0.2h0.6v-0.4l1.8-0.4v-0.6
		h0.8v-0.6c0.4,0.1,0.2,0,0.4,0.2c0.8-0.2,0.3-0.3,0.6-0.6l0.6,0.2v-0.2c0.4-0.3,0.6-0.3,1-0.2v-0.4c0.3-0.2,0,0.5,0.4,0.4v-0.2h0.4
		l0.6-0.8l1.8,0.2v-0.4c0.5-0.1,0.6-0.4,0.6-0.4c0.2-0.1,0.4,0.3,0.8,0.2c0.1-0.1,0.1-0.3,0.2-0.4c0.3-0.1,0.3,0.4,0.4,0.4
		c0.3,0.1,0.3-0.3,0.4-0.4c0.2-0.1,0.3,0,0.4,0.2l0,0c0.4,0.1,0.4-0.2,0.4-0.2h1c0.1-0.1,0.1-0.3,0.2-0.4c0.3-0.1,0.3,0.4,0.4,0.4
		l0.8-0.2v0.4l0.2-0.2h0.8c0.1-0.1,0.1-0.3,0.2-0.4h0.4v-0.2h0.2v0.2c0.3,0,0.6,0.1,0.6-0.2h0.2v0.4l1-0.2v0.4l1.2-0.2v-0.2l0.6,0.2
		c0.1-0.1,0.1-0.6,0.8-0.4c0.1,0.1,0.1,0.3,0.2,0.4c0.3,0.1,0.4-0.2,0.4-0.2h0.2v0.2c0.1-0.1,0.3-0.1,0.4-0.2v-0.2
		c0.2-0.4,0.2,0.4,0.2,0.4l0.6,0.2c0.1-0.1,0.1-0.3,0.2-0.4c0.1,0,0.5,0.3,1,0.2v-0.2l0.6-0.2v0.4h0.6c0.1-0.1,0.1-0.3,0.2-0.4h0.2
		v0.2l1.4-0.2v0.4c0.7,0,1.4,0,2.1,0.2c0.3-1.2,0.6-0.3,1.2-0.4v-0.2h0.8c0.1,0.2,0.1,0.4,0.2,0.6c0.3-0.1,0.7-0.6,1.4-0.4v0.2h0.4
		v0.2l0.8-0.2v0.2h0.4v0.2c0.4,0.1,0.3-0.6,1-0.4c0.1,0.1,0.1,0.3,0.2,0.4c0.8,0.3,0.8-0.5,1.4-0.4v0.2l0.6,0.2v0.2l0.6-0.2v0.2
		l1.2,0.4v-0.2c0.1-0.1,0.3-0.1,0.4-0.2c0.1,1.1,0.3-0.1,0.6,1c0.4,0,1.2,0.1,1.4-0.2h0.2v0.4c0.4,0.4,1.1,0.5,1.8,0.6v0.4
		c0.7,0.1,0.6,0.2,1.2,0.4v0.4c0.3,0.1,0.6,0.1,1,0.2c0.1,0.3,0.1,0.5,0.2,0.8h0.6c0.2,0.7,0.6,0.8,0.8,1.6h0.6
		c0.3,0.6,0.5,1.2,0.8,1.8c0.1,0,0.3-0.1,0.4-0.2c0.1-0.3,0.2,0.2,0.2,0.2v0.6l0.6,0.2c-0.1,0.3-0.1,0.5-0.2,0.8h0.6v0.2h0.2v0.6
		c0.1,0.1,0.3,0.1,0.4,0.2c0.3,0.5,0,0.8,0,1.4l0.6,0.2c-0.1,0.2-0.1,0.4-0.2,0.6l0.2,0.2l-0.2,0.2h0.2c0.1,0.3,0.1,0.5,0.2,0.8h0.4
		c-0.2,1,0,0.7,0.2,1.6h0.4c-0.1,0.1-0.1,0.3-0.2,0.4h0.8v0.4l0.6,0.2c0.1-0.7,0-0.6,0.6-0.8c0.1-0.6,0.3-1.2,0.4-1.8
		c0.1-0.1,0.3-0.1,0.4-0.2c0.2-0.4-0.2-0.5-0.2-0.8h0.2v-0.4h0.2v-0.8c0.1,0.1,0.3,0.1,0.4,0.2v-1h-0.2c-0.1-0.3,0.1,0.1,0.2-0.2
		c0.1-0.4,0.3-1.4,0-1.6h0.4c0.1-0.5,0.1-0.9,0.2-1.4c0.1-0.1,0.3-0.1,0.4-0.2c0.1-0.2,0-0.5-0.2-0.6c-0.1-0.3,0.2-0.3,0.2-0.4v-1.4
		h0.2v-0.4h0.2c0.2-0.3,0.3-0.3,0.4-0.8l-0.2-0.2c0.1-0.1,0.3-0.1,0.4-0.2c0.1-0.4-0.3-0.7-0.4-1h0.2v-0.2h0.6v-0.8
		c0.3-0.1-0.1-0.1,0.2-0.2h0.8v-0.2c0.6-0.6-0.1-0.7,1.2-0.8v-0.2h0.2v0.2l1.4-0.4v0.2h0.8V401l0.6-0.2c0.1,0.1,0.1,0.3,0.2,0.4h0.2
		v-0.4l1.9,0.2c0.1-0.2,0.2-0.3,0.4-0.4c0.1,0.1,0.1,0.3,0.2,0.4l1.6,0.4c0.1-0.2,0.1-0.4,0.2-0.6c0.4,0,0.6-0.2,0.8-0.2v0.2h0.6
		l0.2-0.2c0.1,0.1,0.1,0.3,0.4,0.4v-0.2h0.2l0.2,0.2c0.6,0,0.4-0.5,1-0.4v0.2h0.4v0.2h1.4c0.3-0.1-0.1-0.2,0.2-0.2v0.2l0.6-0.2v0.2
		c0.3,0.1,0.9-0.4,1.6-0.2v0.2h0.8v-0.2c0.3,0.1,0.5,0.1,0.8,0.2v0.4c0.7,0,1.6,0.3,1.9,0.6h0.2v0.6c0.3,0,0.5-0.1,0.8-0.2v0.8
		c1,0.3,0.3,0.5,0.8,1.2c0.3,0.2,0.5,0.4,0.8,0.6v0.8h0.4c-0.1,0.2-0.1,0.4-0.2,0.6l0.6,0.2v0.2h-0.2c-0.4,0.2,0.4,0.2,0.4,0.2
		c0.1,0.5,0.1,0.9,0.2,1.4c0.3,0.2,0.3,0.3,0.8,0.4v0.8l-0.2,0.2h0.2c0.1,0.2,0.2,0.5,0.2,0.8h0.6v0.2h0.2v0.8h0.4v0.2H453v0.2h0.2
		v0.8h0.2v0.4h0.2c-0.1,0.2-0.1,0.4-0.2,0.6c0.1-0.1,0.3-0.1,0.4-0.2v0.6h0.2c0.1,0.2,0.1,0.4,0.2,0.6c0.1,0.1,0.3,0.1,0.4,0.2
		c0.2,0.4-0.1,0.6-0.2,0.8c0.1,0.1,0.3,0.1,0.4,0.2v0.2h0.4c-0.1,0.1-0.1,0.3-0.2,0.4h0.2c0.1,0.3,0.1,0.7,0.2,1l0.6,0.2
		c0.1,0.7,0.3,0.8,0.4,1.4h0.6c0.1,0.5,0.1,0.4,0.4,0.6v0.2l1.2,0.2V420h0.6v-0.2h0.2V419c0.1-0.1,0.3-0.1,0.4-0.2v-0.6
		c0.1-0.1,0.3-0.1,0.4-0.2c0.1-0.3-0.1-0.3-0.2-0.4v-0.2h0.2v-1c0.1-0.1,0.3-0.1,0.4-0.2v-0.4c0.1-0.1,0.3-0.1,0.4-0.2
		c0.1-0.5,0.1-0.9,0.2-1.4H461V414h0.2c0.1-0.7,0.1-1.4,0.2-2.1h0.4v-1h0.2c-0.1-0.6-0.1-1.3-0.2-1.9h0.6v-0.2H462
		c-0.2-0.2-0.2-0.5,0-0.8h0.4c0.2-0.2-0.2-0.2-0.2-0.2c-0.1-0.3,0.3-0.3,0.4-0.4c-0.1-0.4-0.1-0.8-0.2-1.2h0.4
		c0-0.4-0.2-0.5-0.2-0.8h0.2c0.1-0.3,0.1-0.5,0.2-0.8c0.1-0.1,0.3-0.1,0.4-0.2c0.1-0.4,0.1-0.8,0.2-1.2h0.4v-0.8h0.4
		c0.1-0.4,0-0.2,0.2-0.4c0.3-0.4,1.4-0.9,2.1-1v-0.4c0.2,0.1,0.7,0.5,1,0.4c0.1,0,0.2-0.7,0.8-0.6v0.2h0.4v0.2
		c0.2,0.1,0.5,0,0.6-0.2l0.8,0.2v-0.2l1.2-0.2v0.2h0.4v0.2c0.6,0.1,0.4-0.5,1-0.4c0.1,0.1,0.1,0.3,0.2,0.4c0.3,0,0.5-0.3,1-0.2v0.2
		l1,0.2v-0.2h0.4v-0.2l1.9,0.2c0.1,0,0-0.5,0.6-0.4v0.2h0.8v0.2c0.3,0,0-0.1,0.2-0.2l1,0.2v0.2l0.6-0.2v0.2h1v0.1h0.2v-0.2h0.2v0.2
		h0.2c0.2-0.1-0.1-0.3,0.2-0.2v0.2c0.6,0.3,0.7,0.4,1.6,0.4v0.6h0.6c0,1.1,0.1,2.2,0.2,3.3h-0.4c0,0.5,0.1,0.5,0.2,0.8h-0.2
		c-0.2,0.4-0.2,0.5,0,0.8l-0.6,0.2c-0.2,0.3,0.2,0.6,0.2,0.6c-0.1,0.2-0.1,0.4-0.2,0.6h0.2v0.2h-0.2c0.1,0.3,0.1,0.5,0.2,0.8h-0.2
		v0.2c0,0-0.9,0-0.6,0.2h0.2c-0.3,0.8,0.2,1,0,1.6h-0.2v0.6H483c-0.1,0.2-0.1,0.4-0.2,0.6h0.4v0.2h-0.6v0.4h0.2
		c0.1,0.7-0.3,0.7,0,1.6h-0.6v0.8h0.4c-0.1,0.1-0.2,0.3-0.4,0.4v0.6H482c0.1,0.2,0.1,0.4,0.2,0.6c-0.1,0.1-0.3,0.1-0.4,0.2v1.4H481
		c0.1,0.5,0.2,0.4,0.4,0.8h-0.6c0.1,0.5,0.2,1.4,0,1.9c-0.1,0.1-0.3,0.1-0.4,0.2l0.2,0.2c-0.1,0.4-0.1,0.8-0.2,1.2H480v1l0.2,0.2
		H480c-0.1,0.4-0.1,0.8-0.2,1.2h-0.2c-0.1,0.2,0,0.3,0.2,0.4l0,0v0.2h-0.2v0.6c-0.1,0.1-0.3,0.1-0.4,0.2c-0.1,0.3,0.4,0.3,0.4,0.4
		c0.1,0.6-0.3,0.4-0.4,0.6c0.1,0.3,0.1,0.5,0.2,0.8l-0.6,0.4c0.1,0.2,0.1,0.4,0.2,0.6h-0.2c-0.2,0.7,0,0.6,0,1.4
		c-0.1-0.1-0.3-0.1-0.4-0.2v0.8h-0.2c-0.2,0.4,0.2,0.6,0.2,0.8c-0.2,0.1-0.3,0.4-0.2,0.6h0.2v1l-0.6,0.2v0.2h0.2
		c-0.1,0.2-0.1,0.4-0.2,0.6l-0.6,0.2c0.1,0.3,0.5,0.6,0.4,1h-0.2v0.6c-0.1,0.3-0.3-0.1-0.2,0.2h0.4c0.1,0.3-0.1-0.1-0.2,0.2v0.6
		l-0.6,0.4v0.4h-0.2c-0.1,0.6,0.5,0.4,0.4,1c-0.1,0.1-0.3,0.1-0.4,0.2v1.2h-0.2c0.1,0.3,0.1,0.6,0.2,1h-0.2
		c-0.1,0.2-0.1,0.4-0.2,0.6c-0.1,0.1-0.3,0.1-0.4,0.2c-0.2,0.5,0,1.5,0,1.9h-0.2v-0.2c-0.2-0.4-0.2,0.4-0.2,0.4h0.2v0.4h0.2
		c0,0.3-0.3,0.3-0.4,0.4c-0.1,0.5-0.1,1-0.2,1.6c-0.1,0.1-0.3,0.1-0.4,0.2c-0.1,0.3,0.1,0.3,0.2,0.4v0.2h-0.2v1.2h-0.2
		c-0.1,0.3-0.1,0.5-0.2,0.8h-0.2c0.1,0.1,0.1,0.3,0.2,0.4c0,0.4-0.4,0.8-0.4,1l0.2,0.2h-0.6c0,0.3,0.1,0.5,0.2,0.8
		c-0.1,0.1-0.3,0.1-0.4,0.2c-0.1,0.2-0.1,0.6-0.2,0.8l-1,0.2v0.4H472v0.4c-0.5,0.1-0.4,0.1-0.6,0.6h-0.8V454h-0.2
		c-0.1,0.2-0.4,0.3-0.6,0.2V454h-0.2l-0.6,0.2c0-0.1-0.2-0.2-0.3-0.2c0,0,0,0-0.1,0c-0.1,0.2-0.3,0.4-0.4,0.6
		c-0.5,0.1-0.4-0.3-0.6-0.4c-0.2,0-0.3,0.3-0.8,0.2c-0.1-0.1-0.1-0.3-0.2-0.4h-0.2v0.2h-0.8v0.2h-0.2v-0.2c-0.5-0.1-1.1,0.2-1.2,0.2
		v-0.2l-1-0.2v0.2h-0.8v0.2c-0.1-0.1-0.3-0.1-0.4-0.2c-0.1,0.1-0.1,0.3-0.2,0.4l-1-0.2v0.2h-0.2v-0.2h-0.8v-0.2H459v0.2h-1.6v-0.2
		c-0.1,0.1-0.3,0.1-0.4,0.2v-0.2l-1.8,0.2v-0.2h-0.4V454l-0.8,0.2c-0.1-0.1-0.1-0.3-0.2-0.4l-2.1-0.2c-0.2-0.7-0.6-0.6-0.8-1.4
		l-0.6-0.2v-0.6h-0.4v-0.8c-0.7-0.2-0.6-0.4-1-1c-0.1-0.1-0.3-0.1-0.4-0.2v-1h-0.2v-0.2h0.2V448h-0.4v-0.4h-0.4c0.1-0.4,0.2-0.5,0-1
		h-0.2v-0.8h-0.2V445h-0.2c-0.2-0.3-0.1-0.5-0.2-1c-0.4-0.1-0.2,0-0.4-0.2c0.2-0.2,0.1,0,0.2-0.4h-0.6c0.1-0.4,0-0.2,0.2-0.4
		c-0.2-0.8-0.5-0.7-0.6-1.8c-0.7-0.2-0.8-0.5-0.8-1.4h-0.4c-0.1-0.4-0.1-0.8-0.2-1.2h-0.4v-0.8h0.1c0.1-0.7,0.1-0.6,0-1.4h-0.4
		c0-0.3-0.1-0.5-0.2-0.8c-0.1,0.1-0.3,0.1-0.4,0.2v-0.2l-0.6-0.2v-0.2h-1v0.4c-0.5,0.1-0.4,0.1-0.6,0.6h-0.2
		c0.1,0.2,0.1,0.4,0.2,0.6c-0.1,0.1-0.3,0.1-0.4,0.2v0.2H440c0.1,0.1,0.1,0.3,0.2,0.4c-0.1,0.1-0.3,0.1-0.4,0.2
		c-0.1,0.5-0.1,0.9-0.2,1.4c0.2,0.1,0.2,0.2,0.2,0.4h-0.2v0.4h-0.2c-0.1,0.6-0.1,1.2-0.2,1.8H439c-0.2,0.6-0.1,0.5,0,1
		c-0.1,0.1-0.3,0.1-0.4,0.2v0.8c-0.1,0.1-0.3,0.1-0.4,0.2v0.2h0.2v0.8h-0.2c0.1,0.2,0.1,0.4,0.2,0.6h-0.2c-0.1,0.4-0.1,0.8-0.2,1.2
		h-0.2v1h-0.2v0.6h-0.2v0.2h0.2v0.2h-0.2v0.4c0.1,0.1,0.1,0.3,0.2,0.4v0.2h-0.2c-0.3,0.5-0.3,0.3-0.4,1.2h-0.4
		c0,0.3,0.1,0.5,0.2,0.8h-0.4c-0.2,0.3-0.2,0.7-0.2,1.2l-1.2,0.4v0.4l-1-0.2c-0.5,0.6-0.8,0.4-1.8,0.6v0.2c-0.3,0,0.1-0.1-0.2-0.2
		h-0.4V454c-0.3-0.1-0.3,0.2-0.4,0.2h-3.9v0.2h-0.4v0.2l-1.4-0.2v-0.2c-0.2,0-0.3,0.3-0.8,0.2v-0.2h-0.8v0.2
		c-0.1-0.1-0.3-0.1-0.4-0.2c-0.2,0-0.3,0.1-0.4,0.2h-0.2v-0.2h-1.2l-0.2,0.2c-0.1-0.1-0.1-0.3-0.2-0.4c-0.1,0.1-0.3,0.1-0.4,0.2
		c-0.4,0-0.4-0.2-0.4-0.2l-1.9,0.2c-0.1-0.2-0.1-0.4-0.2-0.6h-1v-0.2c-0.2-0.2-0.1,0-0.2-0.4H417l-0.6-1.8c-0.1-0.1-0.3-0.1-0.4-0.2
		c-0.3-0.7,0.5-1.4,0.6-1.8V448c0,0,0.2,0,0.2-0.4c-0.2-0.1-0.3-0.2-0.2-0.4l0,0c0.1-0.1,0.3-0.1,0.4-0.2c0-0.3,0,0-0.2-0.2
		c0.1-0.3,0.1,0.1,0.2-0.2v-1h0.4c-0.1-0.5-0.1-0.9-0.2-1.4h0.4c-0.1-0.6-0.2-0.6-0.4-1c0.7-0.2,0.6-0.4,0.6-1.2
		c-0.1-0.1-0.3-0.1-0.4-0.2c0-0.2,0.2-0.3,0.4-0.4c-0.1-0.3-0.1-0.6-0.2-1h-0.2c0.1-0.2,0.1-0.4,0.2-0.6h0.2v-0.2h-0.2
		c0.1-0.2,0.1-0.4,0.2-0.6h-0.2c-0.3-0.4-0.3-0.4-1-0.4v0.2l-1,0.2v0.8h-0.4c-0.1,0.2-0.1,0.4-0.2,0.6h-0.2v0.4
		c-0.3,0.1-0.6,0.3-1,0.4c0.1,0.2,0.1,0.4,0.2,0.6c-0.6,0.1-0.5,0-0.8,0.4H413v0.2h0.2c-0.1,0.1-0.1,0.3-0.2,0.4l-0.6,0.2v0.8h-0.6
		v0.2c-0.2,0.2-0.2,0.4-0.4,0.6H411v0.2c-0.3,0.3-0.3,0.1-0.4,0.6h-0.4c-0.2,0.5-0.4,0.6-0.6,1.2h-0.4c-0.1,0.2-0.1,0.4-0.2,0.6
		l-0.2-0.2c-0.3,0.1-0.6,0.3-1,0.4c-0.1,0.2-0.2,0.5-0.2,0.8c-0.9,0.1-0.5,0.2-1,0.6v0.2H406v0.4l-1.2,0.2v0.8c-0.2,0.2,0,0-0.2,0.2
		c-0.5-0.1-0.8-0.4-1.2,0c-0.1,0.2-0.1,0.4-0.2,0.6L403,451l-1.2,0.4c-0.1,0.2-0.1,0.4-0.2,0.6l-1.2,0.2c-0.1,0.1-0.1,0.3-0.2,0.4
		l-1.2,0.2c0,0-0.2-0.3-0.4-0.4l-0.6,0.8l-2.5,0.2v0.4h-0.4c-0.2-0.1-0.1-0.5-0.6-0.4v0.2c-0.8,0.2-0.2,0.3-0.6,0.6h-0.2
		c-0.2,0-0.2-0.7-0.8-0.2v0.4l-0.6-0.2V454c-0.2,0-0.5,0.3-1,0.2V454h-0.8c0,0,0,0.2-0.4,0.2V454h-0.2v0.2h-0.8v0.2h-0.2
		c0,0-0.7-0.3-1.4-0.2c0,0-0.1,0.3-0.6,0.2v-0.2c-0.1,0.1-0.3,0.1-0.4,0.2h0.5v-0.2h-1.2v0.2l-0.6-0.2v0.2h-1.4v0.2
		c-0.3,0-0.3-0.4-0.4-0.4h-0.8v0.2c-0.1-0.1-0.3-0.1-0.4-0.2v0.2l-1.4-0.2c-0.1,0.1-0.1,0.3-0.2,0.4h-0.4v-0.4l-0.8,0.2
		c-0.1-0.2-0.4-0.3-0.6-0.2v0.2h-1.2v-0.2h-1c-0.4,0-1.1,0.4-1.8,0.2v-0.2h-0.4V454c-0.3-0.1-1.6,0.4-2.3,0.2V454h-0.2v0.2l-1-0.2
		v-0.2c-0.2,0-0.5,0.3-1,0.2c-0.7-0.2-1.6-0.5-2.5-0.6V453l-0.6-0.2v0.4h-0.2V453h-0.4v-0.2h-0.8c-0.1-0.1-0.1-0.3-0.2-0.4
		c-0.6-0.3-1-0.1-1.6,0v-0.6c-0.6-0.1-0.6-0.1-1-0.4v-0.2h-0.4V451h-0.4v-0.2h-0.6c-0.1-0.2-0.1-0.4-0.2-0.6l-0.4-0.2v-0.4l-0.6-0.4
		V449h-1c-0.1-0.1-0.1-0.3-0.2-0.4h0.2v-0.2h-0.2c-0.2-0.2-0.3-0.5-0.4-0.8l-0.8-0.2V446H357c-0.1-0.3-0.1-0.5-0.2-0.8h0.2
		c-0.1-0.4,0-0.5-0.2-0.8h-0.2v-0.8l-0.4-0.2c-0.2-0.4,0.1-0.7,0.2-1h-0.6v-0.8l-0.6-0.2c0.2-0.7-0.5-1.8-0.6-2.9l-1.4-0.2
		c-0.2,0.4-0.3,0.3-0.4,1h-0.4c-0.1,0.3-0.1,0.6-0.2,1H352v0.8l-0.4,0.2c0.1,0.2,0.1,0.4,0.2,0.6h-0.4c0.1,0.1,0.1,0.3,0.2,0.4
		c-0.3,0.1-0.1,0.1,0.2,0.2v0.4h-0.6v0.8l-0.4-0.2v1.8h0.2v0.2h-0.2v0.8c-0.1,0.2-0.4,0.1-0.4,0.4h0.2c-0.1,0.4-0.5,0.3-0.4,1h0.2
		v0.2h-0.2c0.1,0.2,0.1,0.4,0.2,0.6h-0.2c-0.1,0.4-0.1,0.8-0.2,1.2h-0.4c0.1,0.3,0.1,0.5,0.2,0.8h-0.4c0,0.9-1.1,3-1.6,2.5v0.8h-0.2
		v-0.2c-0.3-0.1-0.7,0.1-0.8,0.2v0.4c-0.1,0.1-0.4-0.3-0.8-0.2v0.2l-0.8,0.2l-0.2-0.2v0.2h-0.4v0.2l-1.9,0.2
		c-0.1-0.1-0.1-0.3-0.2-0.4l-0.6,0.2v-0.2h-0.8v0.4c-0.6-0.2-1.1-0.3-1.8-0.4v0.2l-0.6,0.2c-0.1-0.1-0.1-0.3-0.2-0.4l-1,0.2
		c-0.1-0.1-0.2-0.2-0.4-0.2v0.2h-0.6v0.2c-0.3,0.1-0.3-0.3-0.4-0.4c-0.2-0.1-0.3,0-0.4,0.2l0,0c-0.2,0-0.3,0-0.4-0.2
		c-0.5-0.1-0.5,0.2-0.8,0.4c0-0.2-0.1-0.8-0.2-0.4l-0.4-0.2v0.2c-0.4,0.2-0.3,0.1-0.8,0c-0.1,0.1-0.1,0.4-0.4,0.6v-0.2l-1-0.2
		c-0.1-0.2-0.1-0.4-0.2-0.6c-0.6,0.2-2,0.5-2.5,0.2c-0.1-0.2-0.1-0.4-0.2-0.6c-0.3-0.4-0.7-0.5-1.4-0.6v-0.6H327V452h0.4v-0.2
		c-0.8-0.5-0.5-2.5-0.4-3.3h0v-0.2h-0.2c-0.1-0.1,0-0.3,0.1-0.4c0,0,0,0,0.1,0c-0.1-0.2-0.1-0.4-0.2-0.6l-0.6,0.2H326v-0.2
		c-0.4,0-0.4,0.2-0.4,0.2l-0.4-0.2v0.2c-0.5,0.4-0.4,0.7-1.4,0.8c-0.1,0.2-0.1,0.4-0.2,0.6h-0.2v-0.2l-1.2,0.4
		c-0.1,0.2-0.1,0.4-0.2,0.6c-0.3,0.2-0.6-0.1-0.8,0.2v0.6H321v-0.2l-1.4,0.2v0.4h-1.4c-0.1,0.2-0.1,0.4-0.2,0.6l-1.4,0.2
		c-0.1,0.1-0.1,0.3-0.2,0.4l-0.4-0.2l-0.2,0.2v-0.2h-0.2v0.2H315v0.2h-0.8c-0.1,0.1-0.1,0.3-0.2,0.4h-1v0.2l-0.6-0.2v0.2H312
		c-0.1,0.1-0.1,0.3-0.2,0.4l-0.4-0.2c-0.7,0.4-1,0.4-2.1,0.4v0.4h-0.4v-0.4c-0.5,0.1-0.5,0-0.8,0.2v0.2l-1.2-0.2
		c-0.1,0.1-0.1,0.3-0.2,0.4c-0.6,0.2-0.9-0.3-1.4-0.2v0.2h-0.6c-0.1,0.1-0.1,0.3-0.2,0.4l-0.6-0.2v-0.2c-0.3-0.1-0.3,0.2-0.4,0.2
		l-0.8-0.2c-0.1,0.1-0.1,0.3-0.2,0.4h-1.2V454h-0.1v0.2l-0.6-0.2c-0.5,0-0.7,0-0.8,0.4h-0.2V454l-3.1,0.2c-0.5,0-1.1-0.4-1.8-0.2
		v0.2h-1.8v0.2l-0.6-0.2V454c-0.1,0-0.4,0.2-0.8,0.2l-1-0.2c-0.1,0.1-0.3,0.3-0.4,0.4V454c0.2-0.2,0.1,0,0.2-0.4l-2.1,0.2v-0.2h-1
		v0.2c-0.7,0.1-0.8-0.5-1.4-0.4v0.2l-0.6,0.2c0-0.3-0.1-0.5-0.2-0.8c-0.1,0.1-0.3,0.2-0.4,0.4h-0.8v-0.2h-0.6V453l-0.4-0.2
		c-0.2,0.1,0.1,0.3-0.2,0.2v-0.2h-0.2v0.2c-0.3,0-0.3-0.1-0.8-0.2c0,0,0-0.4-0.2-0.2v0.4c-0.8-0.1-0.5-0.3-1.4-0.4v-0.4
		c-0.5,0.2-0.9,0.2-1.6-0.2l-0.2-0.4l-0.8-0.2v-0.2l-1.6-0.2v-0.2h-0.4l-0.4-0.6l-1-0.2v-0.4l-1.2-0.2l-0.2-0.6c0,0,0.4,0,0.2-0.2
		h-0.4c-0.2,0.2,0,0.1-0.4,0.2v-0.4h-0.4v-0.8l-0.4,0.2L271,447l-0.4-0.2v-1c-0.2-0.3-0.5,0-0.8-0.2v-0.2c0.2-0.2,0.1,0,0.2-0.4
		h-0.4c-0.1-0.6-0.4-0.7-0.6-1.4c-0.3,0-0.5-0.1-0.8-0.2v-0.2l-0.6,0.2v0.8c-0.7,0.2-0.4,0.2-0.8,0.6v0.2h-0.4
		c-0.1,0.7-0.1,1.4-0.2,2.1h0.8v0.6l-0.4,0.2c-0.1,0.3,0.1,0.3,0.2,0.4c0,0.3-0.1-0.1-0.2,0.2v1.2h-0.2c-0.2,0.3-0.1,0.3-0.2,0.8
		h-0.6v0.2h0.2c0.1,0.3-0.3,1.1-0.4,1.6c-0.8,0.2-0.3,0.3-0.6,0.6h-0.2v-0.2l-0.6,0.2c-0.2,0.8-0.1,0.2-0.6,0.6v0.2
		c-0.3,0.2-0.5,0.2-1,0.2v0.2h-1v-0.4l-1.8,0.6v-0.2H259V454l-0.6,0.2v0.2h-0.2v-0.2c-0.8-0.1-1.6,0-2.3,0.2c-0.3,0,0.1-0.1-0.2-0.2
		h-2.1v0.2h-1v-0.2c-0.5-0.1-0.5,0.2-0.8,0.2v-0.2c-0.4-0.1-0.8,0-1.2,0.2v0.2c-0.4,0-0.5-0.6-1.2-0.4c-0.1,0-0.1,0.5-0.4,0.4l0-0.6
		c-0.2-0.1-0.5,0-0.6,0.2c-0.4,0.1-0.4-0.2-0.4-0.2l-1.4,0.2V454c-0.2-0.2-0.1,0-0.2-0.4l-0.8,0.2c-0.1-0.5-0.1-0.4-0.6-0.6v-0.6
		c-0.5-0.1-0.6-0.2-0.8-0.6l0.2-0.2l-0.4-0.2c0.1-0.5,0.1-1,0.2-1.6H244c-0.2-0.7,0.3-0.6,0.4-0.8V449h0.2c0.1-0.4-0.5-0.2-0.4-0.8
		l0.4-0.2c-0.1-0.3-0.1-0.6-0.2-1l0.4-0.2c-0.1-0.3-0.2-0.5-0.2-0.8h0.4l-0.2-0.4l0.4-0.2v-0.9h0.2c-0.1-0.5-0.1-0.9-0.2-1.4
		l0.8-0.6c0.2-0.5-0.3-0.5-0.4-0.6v-1.2h0.6c0.1-1,0.1-1.9,0.2-2.9h0.6v-0.2h-0.2c-0.2-0.5,0.5-0.4,0.4-0.8H247
		c-0.1-0.3-0.2-1.4-0.2-1.4l0.4-0.2c0.3-0.4,0-0.5,0-1.2l0.6-0.2c-0.1-0.4-0.2-0.2,0-0.8h0.2c0.1-0.3-0.2-0.3-0.2-0.4
		c0.1-0.6,0.1-1.3,0.2-1.9h0.2c0.1-0.5,0.1-0.9,0.2-1.4h0.2V429h0.2c0.2-0.5-0.1-0.7-0.2-1h0.2c0.2-0.6,0.2-1.4,0-1.8h0.4
		c0.2-0.2-0.2-0.2-0.2-0.2c-0.3-0.3,0.3-0.2,0.4-0.2c0.1-0.4,0.1-0.8,0.2-1.2l-0.2-0.2l0.4-0.2V424h-0.2l0.2-0.4
		c-0.1-0.1-0.3-0.1-0.2-0.6h0.2v-0.6c0.1-0.1,0.3-0.2,0.4-0.4c-0.2-0.1-0.3-0.2-0.4-0.4c0.4-0.3,0.8-1.1,0.8-1.8
		c-0.2-0.1-0.2-0.2-0.2-0.4l0.4-0.2c0.1-0.4-0.5-0.8-0.2-1.4l0.8-0.6c0.1-0.1-0.3-1-0.2-1.6h0.2c0-0.2-0.1-0.3-0.2-0.4l0.2-0.8h0.4
		c-0.1-0.3-0.1-0.6-0.2-1c-0.1-0.5,0.2-0.1,0.2-0.6c0-0.3-0.2,0.1-0.2-0.2h0.2v-0.4l-0.2-0.2l0.4-0.2v-0.2h-0.2
		c-0.1-0.2,0-0.5,0.2-0.6c0.1-0.3-0.2-0.3-0.2-0.4c-0.1-0.6,0.1-0.9,0.2-1.4h-0.2V409H251v-0.4c-0.5,0.1-0.7,0.4-1.2,0.6
		c0.2,0.6,0.1,0.4,0,1.2h-0.4L249,411h0c-0.1,0.3-0.1,0.6-0.2,1l-0.8,0.6v0.6h-0.2v0.2c-0.1,0.3,0.2,0.7,0.2,0.8l-0.6,0.2v0.4h-0.2
		c-0.3,0.5,0.2,0.3-0.6,0.6c0,1.8-0.8,1.8-1,3.1h-0.4v0.6H245c-0.1,0.4,0.3,0.6,0.2,0.8l-0.8,0.4c-0.2,0.4,0.3,0.6,0.2,0.8h-0.2
		l-0.8,1.4h-0.4v0.2h0.2c0.1,0.4,0.2,0.3,0,0.8h-0.2c-0.3,0.9,0.3,1-1,1.2v0.8h0.2v0.2h-0.2c-0.2,0.6-0.1,1-0.4,1.6h-0.2l-0.2,0.8
		h-0.2v0.8l-0.8,0.6c-0.1,0.5-0.1,1-0.2,1.6H240c0,1.2-0.2,0.6-0.6,1.2h0.2v0.2h-0.4l0.2,0.4h-0.2l-0.2,0.8h-0.2v0.8l-0.6,0.4
		l0.2,0.4H238c-0.1,0.5,0,0.5-0.2,0.8h-0.2c0.1,0.3,0.1,0.6,0.2,1h-0.6c-0.1,0.4-0.1,0.8-0.2,1.2l-0.6,0.2v1.4l-0.4,0.2l0.2,0.6
		l-0.4,0.2v0.4h-0.4c-0.2,0.8-0.5,0.7-0.2,1.6h-0.6c0,0.8,0,1.3-0.4,1.8l-0.4,0.2c-0.1,0.3-0.1,0.6-0.2,1h-0.1
		c-0.1,0.5-0.1,0.9-0.2,1.4l-0.4,0.2v0.4c-0.4,0.7-0.5,0.3-0.6,1.4h-0.4v0.4h-0.2c0.1,0.3,0.1,0.5,0.2,0.8h-0.4
		c-0.1,0.3-0.2,0.6-0.2,1c-0.6,0.1-0.7,0.4-0.8,1l-0.6,0.2l0.2,0.6h-0.6v0.2c-0.2,0.2-0.1,0-0.2,0.4l-0.6,0.2v0.2l-1.7,0.3v0.2
		c-0.2,0.1-0.3,0-0.4-0.2h-0.2l-0.2,0.2V454h-0.6l-0.2,0.4c-0.2,0.1-0.5,0-0.6-0.2h-0.2v0.2c-0.9,0.2-1.8-0.4-1.9-0.4l-0.4,0.6h-0.4
		v-0.4c-0.5,0.1-0.4,0.3-0.8,0.4v-0.2H221v-0.2c-0.5-0.1-0.7,0.2-1,0.2v-0.2h-0.4V454h-0.2v0.4c-0.6-0.1-1.6-0.3-2.5-0.2v0.2h-0.2
		v-0.2c-0.5-0.1-0.6,0.2-0.6,0.2l-1.2-0.2v0.2h-0.8v-0.2h-1.6v0.2l-0.6-0.2v0.2h-1.8c-0.3,0,0.1,0.2-0.2,0.2v-0.2h-0.6v-0.2
		l-0.6,0.4v-0.2c-0.2-0.1-0.5-0.2-0.8-0.2v0.4h-0.4v-0.4h-1v0.2h-0.6c-0.3,0.1,0.1,0.2-0.2,0.2v-0.2h-0.3v-0.2l-1.2,0.4v-0.4h-1.9
		v0.2l-1.4-0.2v0.2h0.1c-0.3,0-0.3-0.4-0.4-0.4l-1.6,0.2v-0.4l-1,0.2v-0.4c-0.3-0.1-0.7-0.2-1-0.4V453h-0.6c-0.2-0.2-0.2-0.6-0.2-1
		H196c-0.1-0.6-0.3-0.4-0.4-0.6v-0.6h-0.2v-0.2h0.2c0.1-0.2,0-0.5-0.2-0.6l0.2-0.6l-0.4-0.2l0.2-2.5h-0.2v-0.4H195
		c0-0.3,0.6-0.4,0.4-1.2h-0.2v-1.9H195V443c0.1-0.1,0.3,0,0.2-0.6H195v-0.2h0.2L195,441h-0.2l0.2-0.6h0.2l-0.2-0.8h0.2
		c0.1-0.5-0.2-0.6-0.2-0.6l0.2-1.6H195v-1h-0.2l0.2-0.6c-0.1-0.1-0.3-0.2-0.4-0.4h0.4l-0.4-0.6h0.2v-1h0.2v-0.4h0.2v-0.2H195
		l0.2-0.8h-0.4l0.2-1.2h-0.2l-0.4-1.2h0.2v-2.1l0.4-0.2l-0.2-1.8l-0.4-0.1c-0.1-0.3,0.2-0.3,0.2-0.4v-0.8h-0.2l0.2-0.8h-0.2
		c-0.1-0.5,0.2-0.7,0.2-1h-0.2v-0.2h0.2v-1.8c0,0-0.3-0.1-0.2-0.6c0-0.3,0.3-0.5,0.2-1h-0.2v-0.4h-0.2c-0.1-0.1,0-0.3,0.2-0.4
		l-0.2-1.4c0-0.1,0.5-0.1,0.4-0.4l-0.6-0.4V416h0.2c0.1-0.4-0.2-0.5-0.2-0.8h0.2V414c0,0,0.1,0,0.2-0.4c-0.8-0.3,0.1-0.8-0.2-2.1
		H194c0-0.2,0.3-0.3,0.2-0.8c0-0.1-0.2-0.1-0.2-0.4c0.2-0.1,0.2-0.2,0.2-0.4H194v-0.6h-0.2v-1h0.2v-1.4h-0.2l0.2-0.4h-0.2l0.2-0.8
		h-0.2v-0.6c-0.1-0.1-0.3-0.2-0.4-0.4h0.4c0.1-1.1,0.4-0.8,0.6-1.6H194c0.1-0.5,0.1-0.4,0.6-0.6l0.2-1.2h0.2v-0.2h0.6v0.9l0.6-0.2
		v-0.4c0.5,0,0.7,0,1-0.2V401h1.4v-0.2l1.6,0.2l1.4-0.4v0.2l0.8,0.2l0.2-0.4l0.6,0.2v0.2l1.2-0.2v0.2l1.4,0.2V401h1v-0.2
		c0.3-0.1,0.7,0.3,1.4,0.2v-0.2l0.6,0.2v-0.2c0.3,0,0.3,0.3,0.8,0.2v-0.2h1.8v-0.2l1.4,0.2v0.2L213.3,400.9z M528,400.9v0.4h0.2
		v-0.4h0.8c0.3,0-0.1,0.2,0.2,0.2c0.1-0.1,0.1-0.3,0.2-0.4h0.2v0.2c0.2,0.2,0.1,0,0.2,0.4h0.4v-0.2c0.3-0.2,0.6-0.3,1-0.2v0.2h1.4
		c0.1-0.1,0.1-0.4,0.4-0.4v0.2h0.6v0.2c0.3,0,1.2-0.4,1.8-0.2c0.1,0.1,0.1,0.3,0.2,0.4l1.2-0.2v0.2c0.4,0.1,1.2,0.1,1.4-0.2h0.2
		c0.2,0.1-0.2,0.1,0.2,0.4v-0.4h0.6v0.2l1.2-0.2c0.1,0.2,0.3,0.4,0.4,0.6c0.1-0.1,0.3-0.1,0.4-0.2v0.2h0.6v-0.2h0.2
		c0.1,0.1,0.1,0.3,0.2,0.4l0.6-0.2v0.2h0.4v0.2c0.7,0.2,1-0.5,1.6,0c0.2,0.2,0.1,0,0.2,0.4c0.5-0.1,0.4-0.3,1-0.4v0.6h0.2v-0.2
		c0.2-0.4,0.2,0.4,0.2,0.4c0.5,0,1,0,1.4,0.2c0.1,0.1,0.1,0.3,0.2,0.4l1.8,0.4v0.4c1,0.1,1.1,0.6,1.9,0.8v0.4c0.5-0.1,0.7-0.2,1,0.6
		c0.2,0.2,0.1,0,0.2,0.4h0.6v0.4h0.4v0.4h0.2v0.2h0.6c-0.1,0.1-0.1,0.3-0.2,0.4h0.2v-0.2c0.3,0.3,0.2,0.2,0.2,0.8
		c0.8,0.1,1.4,0.3,1.9-0.2h0.2c0.2-0.3-0.1-0.6-0.2-0.8h0.8c-0.1-0.3,0,0-0.2-0.2c0-0.3,0.4-0.3,0.4-0.4c0.1-0.3-0.2-0.7-0.2-0.8
		h0.4c-0.1-0.3-0.1-0.5-0.2-0.8h0.4c0.1-0.3,0.1-0.5,0.2-0.8c0.1-0.1,0.3-0.1,0.4-0.2c-0.1-0.1-0.1-0.3-0.2-0.4
		c0.1-0.2,1.6-2.1,1.8-2.1h0.6c0.1-0.1,0.6-0.2,1.4-0.2c0.1-0.2,0.1-0.4,0.2-0.6c0.9,0.4,0.7,0.2,1.9,0.2v-0.4
		c0.6,0.3,0.3,0.4,1.4,0.4v-0.4c0.4,0.2,0.8,0.2,1.2,0.2l0.2-0.2c0.2,0.1,0.1,0.5,0.6,0.4c0.1-0.1,0.1-0.3,0.2-0.4l1.9,0.2v0.2
		l0.6-0.2c0.1,0.1,0.1,0.3,0.2,0.4h0.2V401h0.6v-0.2c0.4-0.1,0.5,0.2,0.8,0.2c0.2-0.1,0-0.5,0.6-0.4v0.2h0.6v0.2
		c0.3,0.1,0.3-0.2,0.4-0.2l1.2,0.2v-0.2h0.6v-0.2h0.2c0.1,0.1,0.1,0.3,0.2,0.4c0.5,0.2,0.7-0.2,1-0.2v0.2l0.8,0.2V401h0.4v-0.2h1.2
		v-0.2l1.6,0.2v0.4h0.2V401c0.2-0.2,0.1,0,0.2-0.4h0.4v0.4l2.3-0.2l0.8,0.2v-0.2l1.2,0.2v-0.2h2.9v0.2c0.1,0,0.5-0.3,1-0.2v0.2h0.8
		v-0.2h1.6v-0.2c0.6-0.1,0.4,0.3,0.6,0.4h0.4v0.2c0.2,0.1,0.3,0,0.4-0.2l0,0c0.2,0,0.3,0.4,0.8,0.2c0.1-0.1,0.1-0.3,0.2-0.4h0.4v0.4
		l0.6,0.2V401l0.6-0.2c0.1,0.1,0.1,0.3,0.2,0.4c0.4,0.2,0.5-0.2,0.8-0.2v0.2h1.2v-0.4l0.2,0.2h1.2v0.2h0.8v0.3h0.2v-0.2h0.4v-0.2
		h0.4v-0.2c0.2,0,1.3,0.3,1.6,0.4v-0.4l0.8,0.2v0.2l2.1,0.2v0.4h0.4c-0.1,0.2-0.1,0.4-0.2,0.6c0.9,0.1,0.9-0.2,1,0.8h0.2
		c-0.1,0.2-0.1,0.4-0.2,0.6c0.1,0.1,0.3,0.1,0.4,0.2c-0.1,0.2-0.1,0.4-0.2,0.6h0.2l-0.6,4.3l-0.6,0.2c0.1,0.8,0.1,0.7,0,1.6h0.4
		c-0.2,0.4-0.3,0.3-0.4,1H605v0.6h-0.4v0.6c-0.1,0.1-0.3,0.1-0.4,0.2c0.1,0.3,0.1,0.5,0.2,0.8H604c-0.1,0.3-0.2,0.6-0.2,1h-0.4v0.6
		H603c-0.1,0.3-0.3,0.3-0.4,0.4v0.4l-0.6,0.4c0.1,0.1,0.1,0.3,0.2,0.4H602c-0.2,0.2,0,0.1-0.4,0.2v0.6H601v0.8
		c-0.7,0.1-0.6,0.2-1.2,0.4c-0.1,0.4-0.1,0.8-0.2,1.2h-0.4v0.6h-0.8c0.1,0.3,0.1,0.5,0.2,0.8l-0.8-0.2v0.6h-0.4l-0.6,1.8h-0.6v0.4
		l-0.6-0.2c0,0.5,0,0.7-0.2,1h-0.2c0.1,0.1,0.1,0.3,0.2,0.4H595c-0.2,0.2-0.1,0.4-0.2,0.8h-0.4v0.4c-0.6,0.1-0.7,0.2-1.2,0.4
		c0,0.6,0.4,0.4-0.2,0.6v0.4l-0.6,0.4c0.1,0.2,0.1,0.4,0.2,0.6h-1v0.2h-0.2v1c-0.1,0.1-0.3,0.1-0.4,0.2v0.8h-0.2
		c-0.2-0.3-0.1-0.3-0.6-0.4v0.8c-0.3,0.1-1,0.5-1.2,0.8c-0.4,0.6,0.3,0.5-0.6,0.8c-0.1,0.9-0.4,0.6-0.6,1.4h-0.6v0.6H587
		c-0.2,0.2,0,0.1-0.4,0.2v0.6l-0.6,0.2c0.1,0.2,0.1,0.4,0.2,0.6c-0.4,0.4-0.5-0.3-0.8,0.6h-0.6c-0.1,0.3-0.1,0.6-0.2,1l-0.6,0.2v0.8
		l0,0v0.4h-0.4v0.6c-0.1-0.1-0.3-0.1-0.4-0.2c-0.3,0.3,0,0.6-0.2,1h-0.2c-0.1,0.1-0.1,0.3-0.2,0.4h-0.4v0.2H582
		c-0.4,0.6,0.3,0.5-0.6,0.8c-0.2,0.2,0,0.1-0.4,0.2c-0.1,1-0.4,0.5-0.6,1.6H580v0.6h-0.6v0.8l-0.8-0.2c-0.1,0.5-0.1,0.9-0.2,1.4
		h-0.2c-0.2,0.3-0.6,0.5-1,0.6c-0.2,0.8-0.4,0.5-0.8,1h-0.2c0.1,0.2,0.1,0.4,0.2,0.6H576c-0.1,0.1-0.2,0.3-0.4,0.4
		c0.1,0.2,0.1,0.4,0.2,0.6l-1,0.2v0.8c-0.6,0.1-0.7,0.3-0.8,1l-0.8,0.2c-0.1,0.7-0.2,0.8-0.8,1v0.6l-0.8-0.2v0.2h-0.2v0.6h-0.8
		c-0.1,0.5-0.1,0.4-0.6,0.6v0.2l-1-1.6v0.4c-0.3-0.1-0.7-0.3-1.2-0.2v0.2h-0.2c0-0.1-0.2-0.2-0.3-0.2c0,0,0,0-0.1,0
		c-0.1,0.2-0.3,0.4-0.4,0.6l-0.6-0.2v-0.2c-0.1,0.1-0.3,0.1-0.4,0.2v-0.2H565v0.2h-0.2v-0.2h-1v0.4l-2.5-0.4v0.4
		c-0.6,0-0.9-0.4-1.4,0c-0.1-0.2-0.1-0.4-0.2-0.6c-0.3-0.1-0.3,0.4-0.4,0.4l-0.6-0.2c-0.1,0.1-0.1,0.3-0.2,0.4h-0.2v-0.4h-1V454
		h-0.2c-0.1,0.1-0.1,0.3-0.2,0.4l-1-0.2v0.2c-0.1-0.1-0.3-0.1-0.4-0.2c-0.4,0-0.4,0.2-0.4,0.2l-2.3-0.2V454l-1,0.2V454h-1v-0.2h-0.4
		v-0.2c-0.3-0.2-0.3-0.1-0.8-0.2c-0.1-0.4-0.3-0.8-0.4-1.2H549c0.1-0.6,0.3-1.3,0.4-1.9h0.6v-0.2c-0.2-0.2-0.3-0.4-0.4-0.6h0.8V449
		h0.4v-0.6l0.6-0.2c-0.1-0.2-0.1-0.4-0.2-0.6h0.2c0.3-0.5,0.3,0,0.6-0.8h0.4c0.1-0.3,0.3-0.2,0.4-0.4c0.4-0.5-0.2-0.4,0.6-0.6
		c0.1-0.2,0.1-0.4,0.2-0.6c0,0-0.4,0-0.2-0.2h0.4c0.2-0.2,0-0.1,0.4-0.2c0.2-1,0.5-0.6,1-1.2c-0.1-0.1-0.1-0.3-0.2-0.4h0.2
		c0.3-0.3,0.4-0.5,0.6-1h0.4c-0.1-0.1-0.1-0.3-0.2-0.4h0.2c0.2-0.4,0.3-0.5,0.8-0.6v-0.6h0.4v-0.4h0.8c0.1-1,0.3-0.7,0.4-1.6h0.4
		V438h0.6c0.1-0.1,0.2-0.3,0.4-0.4c0.1-0.3-0.1-0.3-0.2-0.4l0.6-0.8c0.3-0.2,0.6,0.1,0.8-0.2c-0.1-0.2-0.1-0.4-0.2-0.6h0.4v-0.5h0.6
		v-0.2c0.3-0.2,0.3-0.3,0.4-0.8h0.6c-0.1-0.1-0.1-0.3-0.2-0.4h0.2c0.1-0.2,0.3-0.4,0.4-0.6l0.6-0.2v-0.4c0.1-0.1,0.3-0.1,0.4-0.2
		c0.1-0.3,0.1-0.5,0.2-0.8c0.1-0.1,0.3-0.1,0.4-0.2l0.6-1h0.6c0.1-0.3,0.1-0.6,0.2-1h0.8v-0.2h0.2v-1.2h0.4v0.1l0.8-0.2v-0.6h0.4
		c0.1-0.3,0.1-0.6,0.2-1l0.6-0.2v-0.6h0.8c0.1-0.2,0.1-0.4,0.2-0.6h0.2c-0.1-0.1-0.1-0.3-0.2-0.4h0.4c0.1-0.1,0.1-0.3,0.2-0.4h0.2
		c0.4-0.7-0.5-0.7,0.6-1c0.2-0.2,0-0.1,0.4-0.2v-0.4h0.4c0.1-0.6,0.3-0.7,0.4-1.6c0.9-0.1,0.5-0.2,1-0.6V420h0.8v-0.8h0.6
		c0-0.6,0.1-1.2,0.4-1.6h0.4c-0.1-0.2-0.1-0.4-0.2-0.6h0.2v-0.5h0.2c0.2-0.6,0.1-0.4,0-1H576v-0.6h-0.4v-0.6l-1.6-0.2v-0.2
		c-0.3,0.1-0.5,0.3-0.8,0.4c-0.1-0.2-0.1-0.4-0.2-0.6l-1.4,0.2v-0.2h-0.2v0.2c-0.3-0.1-0.6-0.1-1-0.2c-0.1,0-0.1,0.4-0.4,0.4v-0.2
		h-0.8v0.1H568v0.2c-0.3,0.1-0.3-0.2-0.4-0.2l-1.2,0.2V414H566v-0.2l-0.6,0.2v0.2H565V414h-0.2v0.2h-1.2c-0.2,0.1,0.1,0.3-0.2,0.2
		c-0.1-0.1-0.1-0.3-0.2-0.4h-0.8v-0.2l-0.6,0.2c-0.1-0.2-0.2-0.3-0.4-0.2l0,0c-0.1,0.1-0.1,0.3-0.2,0.4l-1.8,0.2
		c0.1-0.1,0.1-0.3,0.2-0.4H558v-0.2c-0.2-0.1-0.6,0-0.6,0.2h-0.2v-0.4h-0.6v-0.4h-0.2v0.2c-0.2,0.4-0.2-0.4-0.2-0.4h-0.8v0.4H555
		v0.6h-0.6v0.2h-0.2v0.6c-0.5,0.1-0.4,0.1-0.6,0.6h-0.2c-0.1,0.2,0,0.8,0.2,0.8v0.2h-0.4c0,0.5,0,0.7-0.2,1h-0.2
		c0.1,0.3,0.1,0.6,0.2,1h0c-0.1,0.4-0.2,0.4-0.2,0.4v1.2h-0.2v0.4h-0.2c0,0.2,0.4,0.9,0.2,1.4l-0.6,0.4c0,0.3,0.3,0.5,0.2,1
		c0,0-0.2,0-0.2,0.4c0.1,0.2,0.3-0.1,0.2,0.2H552v0.4h-0.2c0.1,0.6,0.1,1.2,0.2,1.8h-0.6v1.2c0,0-0.2,0-0.2,0.4
		c0.1,0.1,0.1,0.3,0.2,0.4h-0.2c-0.1,0.3-0.1,0.5-0.2,0.8h-0.2v1.4h-0.4c0.1,0.3,0.3,0.3,0.4,0.4c0,0.3-0.3,0.2-0.4,0.4v0.6
		c-0.1,0.1-0.3,0.1-0.4,0.2c-0.2,0.5,0.1,1,0.2,1.4h-0.4c0.2,0.7,0,1.1-0.2,1.8v1c-0.1,0.1-0.3,0.1-0.4,0.2c0.1,0.2,0.1,0.4,0.2,0.6
		h-0.2v0.6H549v0.4h-0.2c-0.1,0.2,0.3,0.3,0.2,0.8c-0.1,0.1-0.3,0.1-0.4,0.2c0.1,0.3,0.1,0.6,0.2,1h-0.6c0.1,0.5,0.1,0.9,0.2,1.4
		H548v0.2h0.2c-0.1,0.3-0.1,0.5-0.2,0.8l-0.6,0.2c0,0.7-0.1,0.8-0.4,1.2h-0.2c-0.4,0.8,0.4,0.9-0.8,1.2c-0.1,0.6-0.3,0.4-0.4,1.2
		h-0.4c-0.1,0.2-0.1,0.5-0.2,0.8h-0.2v0.6c-0.1-0.1-0.3-0.1-0.4-0.2c-0.1,0.1-0.1,0.3-0.2,0.4c-0.7,0.5-0.9-0.1-1,1.2l-0.8-0.2
		c-0.1,0.5-0.4,0.9-0.6,1.4h-0.6v0.2c-0.1-0.1-0.3-0.1-0.4-0.2v0.4c-0.2,0.2-0.4,0.1-0.8,0.2v0.4c-0.5,0-1,0.2-1.4,0.6
		c-0.1,0.1-0.1,0.3-0.2,0.4l-1.2,0.2c-0.1,0.1-0.1,0.3-0.2,0.4h-0.6v0.2l-0.8,0.2v0.6l-2.7,0.2c0.1,0.1,0.1,0.3,0.2,0.4h-0.8v0.2
		l-0.8,0.2v0.2c-0.4,0.2-0.5-0.2-0.8-0.2v0.2h-1v0.2h-0.2v-0.2H529c-0.1,0.1-0.1,0.3-0.2,0.4l-0.6-0.2c-0.1,0.1-0.1,0.3-0.2,0.4
		l-1-0.2v0.2c-0.2,0-0.3,0-0.4-0.2l-0.6,0.2V454h-0.2v0.2c-0.5,0.2-0.4,0.2-1,0V454h-0.2v0.2h-1v0.2c-0.3,0.1-0.5,0-0.6-0.2l0,0v0.4
		c-0.7,0-1.1-0.3-1.6-0.4l-0.6,0.2c-0.3,0-0.5-0.3-1-0.2v0.2H519c0,0-0.1-0.3-0.4-0.2v0.2h-1l-0.2,0.2v-0.2l-0.6-0.2V454
		c-0.5-0.1-0.4,0.3-0.6,0.4h-1v-0.2l-0.6,0.2v-0.2h-0.4v0.2H514v-0.2l-1.8,0.2c-0.1-0.1-0.1-0.3-0.2-0.4c-0.5,0.1-0.9,0.3-1.4,0.4
		V454H510v0.2c-0.3,0.1-0.3-0.2-0.4-0.2c-0.2-0.1-0.5,0-0.6,0.2c-0.1-0.1-0.3-0.1-0.4-0.2c-0.4,0-0.4,0.2-0.4,0.2
		c-0.5,0.1-0.5-0.1-0.8-0.2v0.2h-0.2v-0.4h-1v0.2h-0.4v0.2l-0.6-0.2c-0.1-0.2-0.1-0.4-0.2-0.6c-0.5,0-1.3-0.4-1.6-0.4
		c0,0-0.1,0.3-0.4,0.4c-0.1-0.1-0.1-0.3-0.2-0.4h0.2v-0.2h-0.4v-0.2c-0.2-0.1-0.5,0-0.6,0.2l-0.6-0.2c-0.1-0.2-0.1-0.4-0.2-0.6
		l-0.8,0.2v-0.6h-0.6c-0.2-0.3-0.4-0.4-0.8-0.6v-0.6c-1.1-0.1-0.6-0.5-1.2-0.8h-0.4v-0.4H497c-0.1-0.5-0.2-0.6-0.4-1H496
		c0.1-0.4,0-0.2,0.2-0.4c-0.1-0.2-0.1-0.4-0.2-0.6h-0.2v-0.4h-0.2V446h-0.2v-0.2c0,0,0.4,0,0.2-0.2l-0.6-0.2
		c-0.1-0.3,0.2-0.4,0.2-0.4v-1.4h0.2c0.2-0.3,0.1-0.3,0.2-0.8c1.4-0.3,0.6-0.8,1.2-1.2h0.4v-0.4c0.3,0.1,0.6,0.3,1.2,0.2v-0.2h0.2
		v0.2c0.2,0,0.3,0,0.4-0.2h0.2v0.2h0.8v-0.2c0.4-0.1,0.5,0.1,0.8,0.2c0.1-0.1,0.1-0.3,0.2-0.4s0.3,0,0.4,0.2l0,0
		c0.2,0,0.3-0.3,0.8-0.2c0,0,0,0.2,0.4,0.2V441l0.6,0.2c0.4,0,0.4-0.2,0.4-0.2l0.6,0.2h1.2V441c0.5-0.1,0.5,0.2,0.8,0.2V441l1.4,0.2
		V441c0.2-0.1,0.4,0,0.6,0.2l0.6-0.2c0.1,0.1,0.1,0.3,0.2,0.4h0.2V441c0.3,0,0.5-0.1,0.8-0.2c0,0,0,0.3,0.4,0.2v-0.2h0.2
		c0,0,0.1,0.3,0.4,0.2c0,0,0-0.3,0.4-0.2v0.2h1.8v0.4l1-0.2v0.4c0.6,0.1,0.7,0.4,1.6,0.4v0.2h-0.2c0,0.3,0.3,0.3,0.4,0.4v0.4h0.6
		v0.2h0.2v0.8c0.6,0.1,0.6,0.7,1.2,0.2v0.4c0.3,0.1,0.5,0.2,0.8,0.4v0.2c0.7,0.3,2.3-0.5,2.9-0.6v-0.4c0.6,0.2,0.5,0.1,1.2,0v-1h0.4
		c0.1-1,0.3-0.8,0.6-1.6h0.2c0.2-0.7-0.4-0.9-0.4-1c0.1-0.3,0.1-0.5,0.2-0.8h0.2c-0.1-0.2-0.1-0.4-0.2-0.6h-0.4v-0.6h-0.2
		c-0.4-0.5-0.5-0.3-1-0.2v-0.6h-0.8l-0.2,0.2c-0.1-0.1-0.1-0.3-0.2-0.4h-1v-0.2c-0.5-0.1-0.5,0.2-0.8,0.2v-0.2h-1
		c-0.1,0-0.1-0.3-0.4-0.2v0.2l-0.8,0.2v0.2c0,0-0.7-0.3-1.2-0.2v0.2h-0.8c-0.1-0.1-0.1-0.3-0.2-0.4h-0.2v0.2h-1.2v0.2l-0.6-0.2v0.6
		h-0.4v-0.6l-0.8,0.2c-0.1-0.1-0.2-0.2-0.4-0.2c0,0.1-0.2,0.2-0.3,0.2l0,0c-0.1-0.2-0.3-0.4-0.4-0.6c-0.3-0.1-1,0.4-1.6,0.2
		c-0.1-0.1-0.1-0.3-0.2-0.4c-0.5-0.3-0.6,0.1-0.8,0v-0.2c-0.4-0.2-0.7-0.2-1.4-0.2v-0.4h-0.8c-0.1-0.1-0.1-0.3-0.2-0.4H505v-0.2
		l-0.6-0.2c-0.1,0.1-0.1,0.3-0.2,0.4c-0.1,0.4-0.2-0.4-0.2-0.4h-1.2c0.1-0.1,0.1-0.3,0.2-0.4h-0.2c-0.3-0.5-0.8-0.5-1-1.2
		c-0.5-0.1-0.9-0.3-1.4-0.4l0.2-0.2c0.1-0.8-0.8-0.5-1.2-0.8v-0.2c0.2-0.2,0.1,0,0.2-0.4c-0.5-0.1-0.4-0.3-1-0.4
		c-0.1-0.5-0.3-0.4-0.4-1h-0.6c0.1-0.3,0.1-0.6,0.2-1h-0.4c0-2.1-0.9-2.3-1-4.7c-0.6-0.1-0.5-0.1-0.6-0.8c0.1-0.1,0.3-0.1,0.4-0.2
		c-0.1-0.3-0.1-0.5-0.2-0.8h0.2v0.1c-0.1-0.2-0.4-0.1-0.4-0.4h0.2c-0.1-0.1-0.1-0.3-0.2-0.4l0.6-0.2v-0.2h-0.2v-0.6H496
		c0.1-0.4,0.1-0.8,0.2-1.2h0.4c-0.1-0.7-0.1-0.8,0.2-1.6h0.2v-0.6h0.2v-1.1h0.2v-1h0.2c0.1-0.3,0.1-0.6,0.2-1
		c0.1,0.1,0.3,0.1,0.4,0.2v-0.2h0.2c0.1-0.2,0-0.6-0.2-0.6v-0.2h0.4c0.1-0.7,0.3-0.8,0.4-1.4l0.6-0.2c0.1-0.3,0.2-0.7,0.4-1h0.2
		c0.5-0.8,0-0.7,1-1.2c-0.1-0.2-0.2-0.5-0.2-0.8h1c0.1-0.2,0.1-0.4,0.2-0.6h0.2v-0.6l0.6-0.2c0.1-0.1,0.1-0.3,0.2-0.4h0.4
		c-0.1-0.1-0.1-0.3-0.2-0.4c0.1-0.2,0.1,0.1,0.2-0.2h0.6v-0.8c0.1,0.1,0.3,0.1,0.4,0.2c0.3-0.3,0.5-0.6,0.8-1h0.4
		c-0.1-0.1-0.1-0.3-0.2-0.4c0.6-0.2,0.9,0.7,1.2-0.6c0.8-0.1,0.9-0.4,1.6-0.6v-0.4h0.8v-0.4l1,0.2c0.1-0.2,0.1-0.4,0.2-0.6l1.4-0.2
		c0.1-0.2,0.1-0.4,0.2-0.6c0.3,0.1,1.2,0.4,1.8,0.2c0.1-0.2,0.3-0.4,0.4-0.6h0.6v-0.2c0.2-0.1,0.3,0,0.4,0.2l0,0l1.2-0.4v0.4h0.2
		v-0.2c0.5-0.4,0.1-0.5,1-0.6c0.8,0.7,2.1-0.3,3.1,0v0.2h0.8v-0.2c0.1,0.1,0.3,0.1,0.4,0.2c0.1-0.1,0.1-0.3,0.2-0.4
		c0.3,0.1,0.5,0.3,0.8,0.4v-0.2h1c0.1-0.1,0.1-0.5,0.4-0.4c0.1,0.1,0.1,0.3,0.2,0.4l1.2-0.2v0.2h0.4v0.2c0.4,0,0.3-0.4,0.4-0.4h0.2
		v0.2L528,400.9z M388.1,412.1v0.4h-0.6c-0.1,0.3-0.1,0.6-0.2,1c-0.1,0.1-0.3,0.1-0.4,0.2c-0.1,0.4-0.1,0.8-0.2,1.2h-0.2
		c-0.2,0.2,0,0.1-0.4,0.2v0.4h-0.2v1h-0.2c0,0.2,0,0.3,0.2,0.4v0.2h-0.2v0.2h0.2c-0.1,0.3-0.1,0.6-0.2,1h-0.4v1.8H385
		c0.1,0.4,0.1,0.8,0.2,1.2c-0.1,0.1-0.3,0.1-0.4,0.2c0.1,0.1,0.1,0.3,0.2,0.4h-0.2v1c-0.1,0.1-0.3,0.1-0.4,0.2v0.6h-0.2v0.8h0.2
		c0,0.2-0.3,0.5-0.2,1c0,0,0.3,0.1,0.2,0.4h-0.2v0.6H384v0.4h-0.2v1h-0.2v0.2h0.2v0.2h-0.2v0.4c-0.1,0.1-0.3,0.1-0.4,0.2v1H383
		c-0.2,0.5,0.1,1.1,0.2,1.4h-0.6c-0.1,0.8-0.3,1.7-0.4,2.5c0.1,0.1,0.3,0.1,0.4,0.2v0.2h-0.2v0.8h-0.2v0.2h-0.6v0.2h0.2
		c-0.1,0.3-0.1,0.5-0.2,0.8h0.2v1h-0.2c-0.1,0.4,0.3,0.7,0.2,0.8h-0.2c-0.2,0.2,0,0.1-0.4,0.2c0.1,0.3,0.1,0.6,0.2,1H381
		c0,1.4,0.1,2.6,0,3.5h0.4v0.6h0.4c0.1,0.6,0.2,0.6,0.8,0.8c0.1,0.2,0.1,0.4,0.2,0.6c0.3,0,0.5,0.1,0.8,0.2V444l0.6-0.2v0.2
		c0.2,0.2,0.1,0,0.2,0.4h0.4l0.2,0.2c0.1-0.2,0.1-0.4,0.2-0.6h1v-0.2h0.2v-0.6h0.2c0.2,0.3,0.4,0.4,0.8,0.6c0-0.9,0.3-1.3,0.8-1.8
		c0.1-0.1,0.3-0.1,0.4-0.2c0.3-0.5-0.2-0.6,0-1c0.3-0.1,0.5-0.3,0.8-0.4c0.2-0.4-0.3-0.6-0.2-0.8h0.4v-0.2h-0.2
		c0.1-0.1,0.1-0.3,0.2-0.4h-0.2c0.1-0.2,0.1-0.4,0.2-0.6c-0.1-0.2-0.3,0.1-0.2-0.2h0.2c0.2-0.7,0.3-0.7,0.4-1.6
		c0.6-0.1,0.5-0.1,0.6-0.8c-0.2-0.1-0.3-0.2-0.4-0.4h0.4v-1h0.2v-0.2c0,0-0.5-0.1-0.4-0.6l0.6-0.4c-0.1-0.2-0.1-0.4-0.2-0.6
		c0.1-0.1,0.3-0.1,0.4-0.2c0.3-0.7,0.1-1,0-1.8h0.4c-0.3-0.8,0-0.7,0.2-1.4c0.1-0.3-0.2-0.7-0.2-0.8l0.6-0.2c-0.1-0.3-0.1-0.6-0.2-1
		h0.2v-0.6h0.2v-0.2H392c0-0.3,0.1,0.1,0.2-0.2v-1h0.4c0-0.5-0.1-0.5-0.2-0.8c0.1-0.1,0.3-0.1,0.4-0.2c-0.1-0.5-0.1-0.9-0.2-1.4h0.2
		v0.2h0.2v-1h0.2v-0.2H393c-0.1-0.7,0.9-0.9,0.4-1.4h0.4v-0.8c0-0.3-0.2,0.1-0.2-0.2c0.1-0.3,0.1,0.1,0.2-0.2h0.2
		c-0.1-0.2-0.1-0.4-0.2-0.6h0.4c-0.1-0.2-0.1-0.4-0.2-0.6h0.2v-0.6h0.2v-1h0.2c0.1-0.3-0.2-0.3-0.2-0.4v-1c0.1-0.2,0.1-0.4,0.2-0.6
		h-0.2v-0.6c-0.1-0.2-0.2,0-0.4-0.6h0.4V413c-0.5-0.3-0.5-0.8-1.2-1v-0.4c-0.5-0.1-1.4-0.4-1.8-0.8c-0.6,0.1-0.5,0.4-0.6,0.4
		c-0.3,0.1-0.3-0.1-0.4-0.2h-0.2v0.2c-0.2,0-0.4-0.4-0.8-0.2v0.2C388.8,412,389.6,412.1,388.1,412.1z M523.5,412.7
		c-0.8,0.2-0.2,0.1-0.6,0.6c-0.1,0.1-0.3,0.1-0.4,0.2v0.4h-0.2c0.1,0.2,0.1,0.4,0.2,0.6h-0.2v0.8h-0.2v0.4h-0.2
		c-0.1,0.4,0.2,0.5,0.2,0.8h-0.2c-0.3,0.8-0.3,0.5-0.2,1.4h-0.4c0,0.7,0.3,1.4,0,1.9c-0.1,0.1-0.3,0.1-0.4,0.2v0.6h-0.2
		c0.1,0.3,0.1,0.5,0.2,0.8h-0.2v0.4h-0.2v0.8h-0.2v1h-0.2v0.2c0.2,0.1,0.3,0.2,0.2,0.4l0,0h-0.2v0.4H520v0.8h-0.2
		c-0.1,0.5,0.7,1.6,0.2,1.9v0.2h0.2c0.2,0.2,0,0.1,0.4,0.2c0.1,0.5,0.1,0.9,0.2,1.4c0.1-0.1,0.3-0.1,0.4-0.2
		c0.1,0.1,0.1,0.3,0.2,0.4h0.8c0.1,0.1,0.1,0.3,0.2,0.4c0.4,0.1,1.4-0.4,2.1-0.4v-0.4l0.2,0.2h0.2v-0.2c0.1,0.1,0.3,0.1,0.4,0.2
		v-0.2c0.1-0.1,0.3-0.1,0.4-0.2c0.1-0.2,0.1-0.4,0.2-0.6h0.4c0.1-0.7,0.3-1.4,0.4-2.1l0.6-0.2c0-0.9,0.1-0.8,0.4-1.4h0.2
		c-0.1-0.2-0.1-0.4-0.2-0.6c0,0,0.2,0,0.2-0.4h-0.2v-0.6h0.2V422c0.1-0.1,0.3-0.1,0.4-0.2V421h0.2c0.1-0.5,0.1-1,0-1.6
		c0.1-0.1,0.3-0.1,0.4-0.4h-0.4c0-0.3,0.1-0.5,0.2-0.8h-0.2V418c0.5-0.4,0.5,0.3,0.8-0.6c-0.2-0.1-0.3-0.3-0.4-0.6
		c0.1-0.1,0.3-0.1,0.4-0.2c0.1-0.3-0.2-0.3-0.2-0.4c0.1-0.4,0.1-0.8,0.2-1.2h0.4v-0.2c-0.1-0.1-0.3-0.1-0.4-0.2
		c0.1-0.3,0.1-0.6,0.2-1h-0.2v-0.2h0.2c0.1-0.5-0.1-0.7-0.2-1h-0.6v-0.6c-0.1-0.1-0.3-0.2-0.4-0.4h-0.8c0.1-0.1,0.1-0.3,0.2-0.4h-1
		v-0.2c-0.3-0.2-2,0.5-2.1,0.6c-0.3,0.2-0.2,0.4-0.4,0.6h-0.4C523.6,412.3,523.6,412.5,523.5,412.7z M272.6,421.6
		c-0.1,0.6-0.1,1.2-0.2,1.8h-0.2v0.6H272c-0.1,0.3,0.2,0.3,0.2,0.4l-0.2,0.8h-0.4c-0.2,0.4-0.3,0.3-0.4,1h0.2c0,0-0.1,1.2-0.2,1.4
		H271c0,0.2,0.4,0.8,0.2,1.2H271c-0.2,0.2,0,0.1-0.4,0.2c0,0.5,0.2,0.5,0.2,0.8l-0.4,0.2c0.1,0.8,0.1,1.6,0.2,2.3l-0.4,0.2v0.2h0.2
		c0.1,0.5-0.3,1.2-0.2,1.4h0.2c0.2,0.2,0,0.1,0.4,0.2v0.4h-0.2l0.4,0.8c0.8-0.3,1.5,0,2.5,0l0.2-0.6l0.6,0.2v-0.2h0.6v-0.2
		c0.3,0,0.3,0.3,0.8,0.2v-0.2h0.2l0.2,0.4c0.5,0.1,0.5-0.4,0.6-0.4l1,0.2v-0.4l1.8,0.4c0.1-0.1,0.2-0.2,0.4-0.2
		c0.1,0.2,0.4,0.3,0.6,0.2v-0.2l0.6-0.2c0.1,0.1,0.1,0.3,0.2,0.4h1.2l0.2,0.2c0.1-0.1,0.1-0.3,0.2-0.4c0.4-0.2,0.7,0.1,1,0.2v-0.4
		h0.2v0.2l2.3,0.2c0.4-0.1,0.9-0.5,1.6-0.4v0.2l0.4-0.2c0.2,0,0.5,0.4,1,0.2c0.1-0.1,0.1-0.3,0.2-0.4h0.6v-0.2h0.2
		c0.1,0.1,0.1,0.3,0.2,0.4l1.2,0.2c0.1-0.1,0.1-0.3,0.2-0.4l1.4-0.2c0.2-1,0-0.7-0.2-1.6c-0.7-0.1-0.8-0.2-1-0.8h-1V431
		c-0.4,0-0.5,0-0.8-0.2v-0.2h-0.6v-0.2h-0.2c-0.1,0.1,0,0.3-0.4,0.2c-0.1-0.1-0.1-0.3-0.2-0.4h-0.6c-0.1-0.1-0.1-0.3-0.2-0.4h-0.8
		c-0.6-0.2-0.8-0.5-1.8-0.6c-0.1-0.2-0.1-0.4-0.2-0.6c-0.4,0-1.1-0.1-1.2,0.2H284v-0.6l-0.4-0.2v-0.2h-0.8c-0.1-0.1-0.1-0.3-0.2-0.4
		h-0.4v-0.2l-0.6,0.2V427c-0.2-0.2-0.4-0.1-0.8-0.2v-0.6h-0.2c-0.2,0.2-0.4,0.3-0.6,0.4c-0.1-1.4-0.4-0.6-1.2-1v-0.2
		c-0.3-0.2-0.3-0.1-0.8-0.2v-0.4c-0.5-0.3-0.7-0.6-1.4-0.8v-0.9H276v-0.4h-0.6v-1l-1.4-0.2l-0.2-0.4L272.6,421.6z M294,433.5
		c0.1,0.5,0.1,0.9,0.2,1.4l0.6,0.4c0.1,0.2-0.4,0.4-0.2,0.8l0.6,0.2l-0.4,0.6h0.2c0.1,0.2,0.2,0.5,0.2,0.8c-0.2,0.2-0.1,0-0.2,0.4
		h0.4c-0.1,0.4-0.2,0.8-0.2,1.2h-0.4v1.2h0.2c0.1,0.3-0.2,0.3-0.2,0.4v0.8h0.2c-0.1,0.1-0.1,0.3-0.2,0.4h0.2
		c-0.1,0.2-0.1,0.4-0.2,0.6h0.2c0.1,0.2,0.1,0.4,0.2,0.6l0.4,0.2v0.4h0.2c0.3,0.3,0.1,0.3,0.6,0.4c0.1,0.2,0.1,0.4,0.2,0.6
		c0.7,0.1,1.1,0.6,1.8,0.4v-0.2h0.4c0.1-0.1,0.1-0.3,0.2-0.4h1.4v-0.2h0.4v-0.2l1.2-0.4c0.2-0.4,0.6-0.8,0.8-1.2v-0.8l0.6-0.4v-0.4
		h0.2c0.1-0.3-0.1,0.1-0.2-0.2v-0.8h-0.2c-0.4-0.1,0.4-0.2,0.4-0.2c-0.1-1.2-0.6-1.9-0.8-3.1h-0.4c-0.1-0.2-0.1-0.4-0.2-0.6
		l-0.6-0.4v-0.2h-0.8V435c-0.5-0.1-0.9-0.5-1.4-0.6c-0.3-0.1,0.1,0.1-0.2,0.2l-1.4-0.2c-0.1-0.2-0.1-0.4-0.2-0.6
		c-0.1,0-2.4,0.4-2.9,0.2c-0.1-0.1-0.1-0.3-0.2-0.4L294,433.5L294,433.5z"/>
	<text transform="matrix(1 0 0 1 336.7283 369.904)" class="st2 st4 st5">What is</text>
	<text transform="matrix(1 0 0 1 390.9283 521.104)" class="st2 st4 st5">?</text>
</g>
</svg>
