<?xml version="1.0" encoding="utf-8"?>
<!-- Generator: Adobe Illustrator 24.3.0, SVG Export Plug-In . SVG Version: 6.00 Build 0)  -->
<svg version="1.1" id="Layer_1" xmlns="http://www.w3.org/2000/svg" xmlns:xlink="http://www.w3.org/1999/xlink" x="0px" y="0px"
	 viewBox="0 0 2262 397" style="enable-background:new 0 0 2262 397;" xml:space="preserve">
<style type="text/css">
	.st0{fill-rule:evenodd;clip-rule:evenodd;fill:#FFFFFF;}
</style>
<path class="st0" d="M1674.2,33.2c2.9,0.7,3.9,2,6.4,3.2v6.4c0.7,0.4,1.4,0.7,2.1,1.1c1.2,3-0.4,7.7-1.1,9.6h-1.1
	c-0.6,2.9,1.9,2.2,2.1,4.3c-0.7,0.4-1.4,0.7-2.1,1.1V64c0,0-0.6-0.1-1.1,2.1h-2.1c-0.4,2.5-0.7,5-1.1,7.4c0.4,0.7,0.7,1.4,1.1,2.1
	h-1.1c0.4,1.8,0.7,3.5,1.1,5.3c-0.7,0.4-1.4,0.7-2.1,1.1v2.1h-1.1c-0.4,1.1-0.7,2.1-1.1,3.2h-2.1c-0.7,1.8-1.4,3.5-2.1,5.3h-2.1
	l1.1,1.1l-1.1,1.1c0.4,1.1,0.7,2.1,1.1,3.2h-2.1v2.1l-6.4,2.1c-0.4,0.7-0.7,1.4-1.1,2.1h-1.1v-1.1h-1.1v1.1h-3.2
	c-0.4,0.7-0.7,1.4-1.1,2.1h-3.2c0,0,0,2.1-1.1,1.1v-2.1c-2.5-0.1-5-0.4-7.4-1.1v-3.2l-3.2,1.1c-0.4-1.1-0.7-2.1-1.1-3.2l-3.2-1.1
	c-0.4-0.7-0.7-1.4-1.1-2.1h-2.1v-2.1h-3.2c-0.4-1.1-0.7-2.1-1.1-3.2c-2.4-0.2-2.8-0.2-4.3-1.1v-1.1c-1.3-0.7-0.1,0.8-1.1,1.1
	c-1.5,0.4,0.4-0.5-1.1-1.1c-0.7,0.4-1.4,0.7-2.1,1.1c-0.4-1.1-0.7-2.1-1.1-3.2c-3.1-2.1-2.8,1.9-4.3-3.2h-3.2v1.1
	c-1,2-1.1-2.1-1.1-2.1h-3.2V69.3l-3.2-1.1v-1.1h1.1v-1.1h3.2c-0.1-5.8,1-8.8,2.1-12.8c0.7-2.3-1.4-3.2-1.1-4.3
	c0.7-0.4,1.4-0.7,2.1-1.1c0.4-1.4,0.7-2.8,1.1-4.3h2.1c-1.5-4.6,0.9-4,2.1-8.5h2.1v-3.2l5.3-1.1V29c3.5,0.6,4.8,1.3,6.4,0h1.1v-3.2
	h4.3v1.1h1.1c0.7-0.1,0.5-2.4,2.1-2.1c0.4,0.7,0.7,1.4,1.1,2.1l4.3-1.1v1.1h2.1v1.1c0.7-0.4,1.4-0.7,2.1-1.1v1.1l3.2-1.1v-1.1
	c0.4-0.1,3.8,1.8,6.4,1.1v-1.1l5.3-1.1c0.4,0.7,0.7,1.4,1.1,2.1h3.2v1.1h5.3c0.4,0.7,0.7,1.4,1.1,2.1
	C1673.8,31.9,1672.9,28.9,1674.2,33.2z M108.4,76.8v2.1h6.4c0.3,0.1,0.3,1.4,2.1,1.1v-1.1h2.1V81h3.2v3.2c3.4,0.8,3.9,1.4,4.3,5.3
	h2.1c0.7,3,2,2.8,2.1,3.2V97h-1.1c-0.3,1.8,1,1.8,1.1,2.1c0.4,1.6,0.5,5.4-1.1,5.3v1.1h2.1v8.5h1.1v1.1l-1.1,1.1l1.1,1.1h-1.1
	c-0.4,3.2-0.7,6.4-1.1,9.6h-1.1c-0.1,0.9,1.3,1.8,1.1,4.3v1.1h-1.1c0.4,1.1,0.7,2.1,1.1,3.2c-0.4,3.5-0.7,7.1-1.1,10.6h2.1
	c-0.7,2.1-1.4,4.3-2.1,6.4h1.1v4.3h-1.1c-0.4,1.1-0.7,2.1-1.1,3.2l2.1,1.1c0.4,2.1,0.7,4.3,1.1,6.4h-1.1v4.3l-3.2,2.1
	c0.7,3.9,1.4,7.8,2.1,11.7h-1.1v4.3h1.1v1.1h-1.1c-0.3,1.2,0.1,2.5,1.1,3.2c-0.4,1.1-0.7,2.1-1.1,3.2h1.1c0.9,3.5-1.3,11.8-1.1,12.8
	l2.1,1.1c1.9,4.6-1.4,5.9,0,10.6h1.1v4.3h1.1c-0.4,1.1-0.7,2.1-1.1,3.2l2.1,1.1c0.4,1.1,0.7,2.1,1.1,3.2l3.2-1.1
	c0.8-3.4,1.6-2.3,2.1-6.4c3.4-0.8,3.9-1.4,4.3-5.3l3.2-1.1v-1.1h-1.1c-2-0.9,2.1-1.1,2.1-1.1v-4.3l2.1-1.1v-3.2h1.1
	c0.9-1.5,0.7-1.8,1.1-4.3c-2.1-0.6-0.9,0.1-2.1-1.1c4.5-2.7,1.7-3.5,3.2-5.3c1.2-1.2,0-0.4,2.1-1.1c0.2-5.5,1.9-4.9,3.2-8.5V182
	l1.1-1.1h1.1v-2.1h-1.1v-1.1h2.1v-4.3l3.2-1.1V165h1.1V164c-0.9-0.3-1.4-1.2-1.1-2c0,0,0-0.1,0-0.1h1.1c0.4-1.4,0.7-2.8,1.1-4.3
	l3.2-1.1c-0.1-3.4-2.1-2,1.1-3.2c0.4-3.2,0.7-6.4,1.1-9.6h2.1v-6.4l2.1,1.1v-1.1h1.1l1.1-9.6l-1.1-1.1l2.1-1.1v-4.3l2.1-1.1v-2.1
	h1.1v-2.1h1.1c1.5-3,0.7-5.8,0-8.5l6.4-5.3c0.4-1-2-2-1.1-4.3l2.1-1.1v-3.2l2.1-1.1c2.3-3.6,1.2-3.1,1.1-7.4
	c3.2-0.8,2.2-1.7,3.2-2.1h4.3l1.1-2.1l2.1,1.1V80c3.4-0.6,6.9-3.5,11.7-2.1v1.1l3.2,1.1l1.1-2.1c2.4-0.9,2.9,1.1,4.3,1.1v-1.1h3.2
	c0.5-0.2,0.4-1.9,2.1-2.1v1.1l5.3,1.1c0.4-0.8,1.3-1.2,2.1-1.1v1.1h4.3c1.5,0.2-0.4,0.9,1.1,1.1l1.1-2.1c3.7-1.3,5.6,2.3,7.4,2.1
	l1.1-2.1l3.2,1.1v-1.1c3.7-1.1,3.2-0.4,6.4,0v2.1c2.7-1.5,5.5-2.6,8.5-3.2l-1.1,2.1h1.1v-1.1l7.4,2.1l2.1-3.2h1.1v1.1h12.8v1.1h2.1
	v1.1c3.1,1.1,7.3-1.4,8.5-1.1l1.1,2.1l6.4,1.1l1.1,2.1l3.2-1.1l1.1,2.1l3.2,1.1v1.1l2.1-1.1c2.7,0.1,5.6,1,9.6,1.1
	c1.3-3.5-0.9-3.1,5.3-3.2c2.6-3.6,1.5-0.6,5.3-2.1V80h2.1v-1.1h5.3l1.1-2.1c1.2,0,2.8,2.1,5.3,1.1v-1.1c1.6-0.9,2.6-0.9,5.3-1.1
	c1.2,1.8,0.7,1.4,3.2,2.1v-2.1h3.2v2.1h3.2v-2.1c4.3,0.5,4.5,3.6,7.4,3.2v-1.1h4.3l1.1-2.1l4.3,2.1c1.6-0.7,4.2-3.6,8.5-2.1v1.1h2.1
	v1.1c1.9,0.6,5.2-1.8,5.3-2.1v2.1l6.4-1.1v1.1h3.2v-2.1c3.7,0.6,2,1.2,5.3,0v2.1l3.2-1.1v1.1h4.3v1.1c2.6,0.9,8.1,0.3,10.6,1.1v-1.1
	h1.1l1.1,2.1l5.3,1.1v3.2l3.2,1.1v2.1c0.8,1,2.2,0.8,3.2,2.1c-1.9,2.1-2.1,10.4-1.1,13.8h1.1c0.7,2.6-0.9,3.9-1.1,5.3h1.1
	c1,3.4,0.8,2.5,0,5.3h3.2v2.1l9.6-1.1v-3.2h5.3v-3.2h4.3v-4.3c5.4-0.2,7.1-2.2,11.7-3.2c0.4-1.1,0.7-2.1,1.1-3.2l5.3-1.1
	c0.4-1.1,0.7-2.1,1.1-3.2H507c0.9-3.7,1.9-4.1,6.4-4.3v-2.1h4.3v2.1c1.2-0.9,0.2,0.1,1.1-1.1h1.1l1.1-3.2h4.3v-1.1h6.4v-1.1
	c4.8-1.4,9.1-0.3,12.8,0v-2.1h4.3l1.1,1.1l1.1-2.1c0.3-0.1,7.2,1,9.6,1.1v-3.2h1.1l1.1,2.1h1.1V80c1.8-0.4,1.8,1,2.1,1.1
	c1.2,0.4,2.5,0,3.2-1.1c2.8-0.7,4.9,0.6,6.4,1.1l1.1-3.2h1.1c1,1.4,1.9,1.1,4.3,1.1v-2.1c2.5,0.7,2.5,1,4.3,2.1V80l6.4-1.1V80h1.1
	c1.8-0.2,1.7-2,2.1-2.1l10.6,1.1v-1.1h2.1v-1.1c1.8,0.2,1.9,2.1,2.1,2.1l5.3-1.1v-2.1c0.8,0.6,1.5,1.3,2.1,2.1h2.1v1.1
	c1.8-0.2,2-2.1,2.1-2.1c1.5-0.3-0.2,0.3,1.1,1.1l3.2-1.1v1.1h8.5v-1.1h1.1v1.1h2.1v1.1h1.1v-1.1c0.9-0.2,1.7,0.3,2.1,1.1
	c1.4,0.2,1.8-1.7,4.3-1.1v1.1h8.5V80c2.7,0.5,5.6-3.2,8.5-2.1l1.1,2.1h5.3V81l6.4-2.1l2.1,3.2l2.1-1.1v1.1l6.4,1.1
	c0.3-0.9,1.2-1.3,2.1-1.1c0,0,0.3,1.4,2.1,1.1v-1.1c5.1-0.9,3.6,3.9,5.3,3.2c0.5-0.2,0-1.5,3.2-2.1v2.1c4.1,0.6,2.9,0.4,7.4,0v2.1
	l5.3-1.1l2.1,3.2h2.1v1.1l6.4-1.1v2.1h6.4v4.3h1.1v-1.1l2.1,1.1c0.2-0.3-0.2-1.9,1.1-1.1v1.1c1.2,1.2,0.4,0,1.1,2.1
	c2.8,0.1,3.6,0.3,5.3,1.1v-1.1c2.1,2.2,1.3,4.5,4.3,6.4v1.1h1.1v-1.1c2.1-0.4,1.4,0.4,2.1,1.1c1.2,1.2,0.4,0,1.1,2.1h2.1
	c0.4,2.1,0.7,4.3,1.1,6.4h1.1c1.2,1.2,0,0.4,2.1,1.1v3.2h3.2c-0.2,5,0.6,10.1,2.1,14.9h1.1v1.1H759v1.1h1.1c0.2,0.9-0.2,1.8-1.1,2.1
	c-0.2,1.5,0.8-0.4,1.1,1.1c-0.4,0.7-0.7,1.4-1.1,2.1l2.1,1.1v1.1H760v2.1H759v3.2h-1.1v4.3h-2.1c0.4,1.1,0.7,2.1,1.1,3.2h-1.1
	c-0.4,1.8-0.7,3.5-1.1,5.3h-2.1v3.2l-4.3-1.1v3.2h-1.1v1.1h-3.2c-0.4,0.7-0.7,1.4-1.1,2.1l-7.4,1.1c-0.3-0.9-1.2-1.3-2.1-1.1v1.1
	h-2.1v1.1h-1.1v-1.1h-1.1v1.1l-2.1-1.1v1.1l-6.4-1.1v1.1l-3.2,1.1v-1.1h-2.1v-1.1c-1.8-0.5-1.9,1-2.1,1.1l-6.4-1.1
	c-0.4,0.7-0.7,1.4-1.1,2.1h-1.1v-2.1c-7.4,0.2-10.2,1.4-18.1,0v2.1c-2.5-0.2-2.7-0.2-4.3-1.1v-1.1h-1.1v1.1h-1.1v-1.1H676v1.1H675
	v-2.1c-2,0.3-1.9,1-2.1,1.1h-5.3v1.1h-1.1v-1.1c-1.5-0.3,0.4,0.7-1.1,1.1c-2.6,0.7-3.9-0.8-5.3-1.1v1.1c-4.1,1.1-11.6-1.2-12.8,0
	c-1.2,1.2-0.4,0-1.1,2.1h-2.1v-2.1l-6.4,1.1v-1.1h-3.2v-4.3c-3.6,1.1-2.9,0.5-6.4-1.1c0.2-4.1,1.3-4.4-1.1-7.4l-2.1-1.1
	c-1.2-2.5,0.9-5.2,1.1-6.4H625v-2.1H624v-4.3h-1.1c-0.4-2.1-0.7-4.3-1.1-6.4h-2.1c0.4-0.7,0.7-1.4,1.1-2.1h-2.1
	c-0.4-1.1-0.7-2.1-1.1-3.2c-2.5-0.3-2.7-0.2-4.3-1.1V131H608v1.1l-7.4-2.1c-0.4,3.6,0,3.4-3.2,4.3v2.1H591v2.1h-2.1
	c-0.4,1.4-0.7,2.8-1.1,4.3h-2.1c0.4,2.8,0.7,5.7,1.1,8.5h-1.1v2.1h-1.1v4.3l-1.1,1.1l2.1,1.1c-0.4,0.7-0.7,1.4-1.1,2.1h4.3
	c-0.4,1.8-0.7,3.5-1.1,5.3c3.6,0.7,4.1,2.3,7.4,3.2v2.1c2.6,1.2,4.3,2.5,7.4,3.2c0.4,1.1,0.7,2.1,1.1,3.2c2.3-0.3,6.4-1.4,9.6,0
	c0.4,0.7,0.7,1.4,1.1,2.1c1.4,0.6,4.3-1.1,4.3-1.1v2.1l3.2-1.1v1.1l4.3,1.1l1.1-1.1c2.4,1,7.7,5.3,9.6,3.2v2.1
	c3.4,0.7,2.1,1.5,3.2,2.1c0.3,0.1,2.1-1.3,4.3,0l2.1,3.2h2.1v1.1h4.3v1.1l3.2,1.1c0.4,0.7,0.7,1.4,1.1,2.1l2.1-1.1v1.1h4.3
	c1.5-0.1-0.4-1.2,1.1-1.1v1.1h3.2l3.2,4.3l3.2-1.1c0.4,0.7,0.7,1.4,1.1,2.1c2.8,1.9,1.9-1.1,3.2,3.2c5.6,0,11.1,1.4,15.9,4.3
	c0.4,0.7,0.7,1.4,1.1,2.1h3.2c0.4,0.7,0.7,1.4,1.1,2.1c1.6,1.3,3.9,2.5,5.3,1.1v2.1l4.3-1.1v3.2c2.4,0.4,2.7,1.6,4.3,0v3.2l2.1-1.1
	v1.1l5.3,1.1v3.2h4.3v2.1h2.1c0.8,2.9,0.3,2.4,3.2,3.2c0.4,3.8,1.3,3.2,2.1,6.4c2.5,0.6,2,0.3,3.2,2.1h1.1c-0.4,0.7-0.7,1.4-1.1,2.1
	h1.1l7.4,6.4v1.1h6.4c0.4-1.1,0.7-2.1,1.1-3.2l2.1-1.1c0.6-1.4-0.8,0.1-1.1-1.1v-1.1h1.1v-4.3l2.1-1.1v-3.2l2.1-1.1v-1.1h-1.1
	c-0.3-0.9,0.2-1.8,1.1-2.1c-0.4-1.8-0.7-3.5-1.1-5.3h2.1v-2.1h2.1v-4.3H760v-1.1l2.1-1.1V216h1.1c0.5-1.8-1-1.9-1.1-2.1
	c0.4-2.1,0.7-4.3,1.1-6.4h1.1c-0.4-0.7-0.7-1.4-1.1-2.1l2.1-1.1v-4.3h1.1c-0.4-1.1-0.7-2.1-1.1-3.2c0.4-1.1,0.7-2.1,1.1-3.2h1.1
	v-1.1h-1.1c-0.2-2.4,1.1-2.1,1.1-2.1c-0.4-1.1-0.7-2.1-1.1-3.2h2.1c-0.4-1.4-0.7-2.8-1.1-4.3h1.1c0.8-3.4,1.1-8.3,0-9.6l3.2-1.1
	c-0.4-0.7-0.7-1.4-1.1-2.1c0.4-2.1,0.7-4.3,1.1-6.4c-1-0.4-1.8-1.1-2.1-2.1l3.2-2.1v-3.2l2.1-1.1c-0.7-2.1-1.4-4.3-2.1-6.4h1.1v-2.1
	l2.1-1.1c-0.4-1.1-0.7-2.1-1.1-3.2h2.1c-0.4-0.7-0.7-1.4-1.1-2.1c0.1-1.2,0.9-1.6,1.1-4.3h3.2v-1.1c-2.1-0.6-0.9,0.1-2.1-1.1
	c2.7-2.3,1.7-4,1.1-7.4h2.1v-4.3h1.1c0.2-0.9-0.2-1.8-1.1-2.1c-0.4-2.1,0.6-1.4,1.1-2.1c-0.4-1.1-0.7-2.1-1.1-3.2h3.2v-9.6h2.1
	c-1.9-5.3,1.6-7.5,2.1-13.8h2.1v-1.1h-1.1c0.8-1.6,2.2-1.7,4.3-2.1v-5.3c1.2-0.9,0.2,0.1,1.1-1.1c4,0,8-0.7,11.7-2.1v-3.2h2.1
	l1.1,2.1c1.8,0.6,1.9-1,2.1-1.1c2.4-0.5,2.9,0.6,4.3,1.1c1.4-1.1-1.2-1.6,1.1-2.1v1.1c1.2,0.3,2.5-0.1,3.2-1.1l5.3,1.1v-1.1h3.2
	c1.5-0.3-0.4-0.9,1.1-1.1l1.1,2.1c2.9,0.8,2.6-1.9,3.2-2.1l10.6,2.1v-2.1h3.2l1.1,3.2c2.2-0.4,2.1-1,2.1-1.1h5.3v-1.1h1.1v1.1h5.3
	v-1.1h7.4v1.1h1.1c0.3-0.3-0.2-1.9,1.1-1.1v2.1h1.1v-1.1h3.2v-1.1l4.3,1.1v-2.1c3.3,0.7,2.1,1.6,3.2,2.1h3.2v1.1
	c2.5,0.7,2.5-0.6,3.2-1.1l9.6,3.2c1.7,1.4,3,3.5,4.3,5.3h1.1v4.3h1.1l1.1,2.1h2.1v1.1c-3.2,2.3-1.5,2-1.1,6.4h-2.1v1.1l2.1,1.1v1.1
	l-2.1,1.1v3.2h-1.1c-1,3.2,1.6,5.7,1.1,7.4l-2.1,1.1v3.2l-1.1,1.1v1.1h1.1v1.1h-1.1c0.5,1.4,0.8,2.8,1.1,4.3h-2.1
	c0.4,1.8,0.7,3.5,1.1,5.3h-1.1c-1.2,1.2,0,0.4-2.1,1.1c0.3,5.1,0.7,5.1,0,9.6h2.1c-0.4,4.6-0.7,9.2-1.1,13.8h-1.1
	c0.4,1.1,0.7,2.1,1.1,3.2c1.9,1,1.7,1.5,4.3,2.1c1.5-2.7,2.2-3,6.4-3.2c0.9-7.1,3.4-3.3,5.3-6.4v-2.1h2.1v-3.2c3,0.6,0.1,0.8,3.2,0
	v-3.2h2.1c-0.4-0.7-0.7-1.4-1.1-2.1h1.1l3.2-5.3c2.1,0.6,0.9-0.1,2.1,1.1h2.1c-0.4-2.1-0.7-4.3-1.1-6.4c1.2-0.9,0.2,0.1,1.1-1.1
	l2.1,1.1c0.4-0.7,0.7-1.4,1.1-2.1c3.5-2.9,7.4-5.3,8.5-10.6l5.3-1.1V114h1.1c1.9-2.4,4.5-3.9,8.5-4.3v-3.2h1.1v1.1
	c0.9,2,1.1-2.1,1.1-2.1h3.2v-1.1h-1.1c-2-0.9,2.1-1.1,2.1-1.1v-1.1h3.2v-2.1l9.6-2.1v-3.2h4.3v-3.2c2.1,0.6,0.9-0.1,2.1,1.1
	c4.4-1.1,1.6-1.9,3.2-3.2l3.2,1.1v-1.1c2.4-1.5,3.1-1.9,5.3-1.1v-2.1c1.9-1.2-0.1,2.5,2.1,2.1v-1.1h2.1l3.2-4.3l9.6,1.1v-2.1
	c2.8-0.6,3.2-2.1,3.2-2.1c1.1-0.4,2,1.9,4.3,1.1c0.4-0.7,0.7-1.4,1.1-2.1c1.6-0.4,1.5,2,2.1,2.1c1.6,0.3,1.4-1.9,2.1-2.1
	c0.9-0.3,1.8,0.2,2.1,1c0,0,0,0,0,0c2.4,0.3,2.1-1.1,2.1-1.1h5.3c0.4-0.7,0.7-1.4,1.1-2.1c1.6-0.4,1.5,2,2.1,2.1l4.3-1.1V80l1.1-1.1
	h4.3c0.4-0.7,0.7-1.4,1.1-2.1h2.1v-1.1h1.1v1.1c1.4,0.2,3.2,0.6,3.2-1.1h1.1v2.1l5.3-1.1v2.1l6.4-1.1v-1.1l3.2,1.1
	c0.8-0.3,0.8-3.3,4.3-2.1c0.4,0.7,0.7,1.4,1.1,2.1c1.8,0.6,2-1,2.1-1.1h1.1v1.1c0.7-0.4,1.4-0.7,2.1-1.1v-1.1c1-2,1.1,2.1,1.1,2.1
	l3.2,1.1c0.4-0.7,0.7-1.4,1.1-2.1c0.8-0.1,2.8,1.8,5.3,1.1v-1.1l3.2-1.1v2.1h3.2c0.4-0.7,0.7-1.4,1.1-2.1h1.1v1.1l7.4-1.1v2.1
	c3.9-0.1,7.9,0.2,11.7,1.1c1.8-6.5,3.3-1.5,6.4-2.1v-1.1h4.3c0.4,1.1,0.7,2.1,1.1,3.2c1.9-0.8,4.1-3.2,7.4-2.1v1.1h2.1v1.1l4.3-1.1
	v1.1h2.1V80c2,0.3,1.8-3.3,5.3-2.1c0.4,0.7,0.7,1.4,1.1,2.1c4.3,1.6,4.3-3,7.4-2.1v1.1l3.2,1.1V81l3.2-1.1V81l6.4,2.1v-1.1
	c0.7-0.4,1.4-0.7,2.1-1.1c0.8,6.1,1.6-0.7,3.2,5.3c2.4,0,6.7,0.8,7.4-1.1h1.1v2.1c2,2.1,5.9,2.9,9.6,3.2v2.1
	c3.8,0.4,3.2,1.3,6.4,2.1V97c1.8,0.4,3.5,0.7,5.3,1.1c0.4,1.4,0.7,2.8,1.1,4.3h3.2c1,3.9,3.3,4.3,4.3,8.5h3.2
	c1.4,3.2,2.8,6.4,4.3,9.6c0.8,0.1,1.7-0.3,2.1-1.1c0.5-1.4,1.1,1.1,1.1,1.1v3.2l3.2,1.1c-0.4,1.4-0.7,2.8-1.1,4.3h3.2v1.1h1.1v3.2
	c0.7,0.4,1.4,0.7,2.1,1.1c1.4,2.9,0.2,4.2,0,7.4l3.2,1.1c-0.4,1.1-0.7,2.1-1.1,3.2l1.1,1.1l-1.1,1.1h1.1c0.4,1.4,0.7,2.8,1.1,4.3
	h2.1c-1,5.6-0.2,3.7,1.1,8.5h2.1c-0.4,0.7-0.7,1.4-1.1,2.1h4.3v2.1l3.2,1.1c0.4-3.6,0-3.4,3.2-4.3c0.7-3.2,1.4-6.4,2.1-9.6
	c0.7-0.4,1.4-0.7,2.1-1.1c1-2.2-0.9-3-1.1-4.3h1.1v-2.1h1.1v-4.3c0.7,0.4,1.4,0.7,2.1,1.1v-5.3h-1.1c-0.5-1.4,0.8,0.4,1.1-1.1
	c0.5-2.4,1.5-7.7,0-8.5h2.1c0.4-2.5,0.7-5,1.1-7.4c0.7-0.4,1.4-0.7,2.1-1.1c0.5-1.2,0-2.5-1.1-3.2c-0.4-1.8,1-1.8,1.1-2.1v-7.4h1.1
	v-2.1h1.1c1.1-1.5,1.9-1.8,2.1-4.3l-1.1-1.1c0.7-0.4,1.4-0.7,2.1-1.1c0.6-2.2-1.7-3.7-2.1-5.3h1.1v-1.1h3.2v-4.3
	c1.4-0.6-0.3-0.5,1.1-1.1h4.3v-1.1c3.3-3.1-0.6-3.7,6.4-4.3v-1.1h1.1V80l7.4-2.1v1.1h4.3v-1.1l3.2-1.1c0.4,0.7,0.7,1.4,1.1,2.1h1.1
	v-2.1l10.6,1.1c0.3-1,1.1-1.8,2.1-2.1c0.4,0.7,0.7,1.4,1.1,2.1l8.5,2.1c0.4-1.1,0.7-2.1,1.1-3.2c2.3-0.1,3.5-1.1,4.3-1.1v1.1h3.2
	l1.1-1.1c0.6,0.3,0.4,1.7,2.1,2.1v-1.1h1.1l1.1,1.1c3.2,0.2,2.1-2.7,5.3-2.1v1.1h2.1v1.1h7.4c1.5-0.3-0.4-0.9,1.1-1.1v1.1l3.2-1.1
	v1.1c1.6,0.3,5.1-2,8.5-1.1v1.1h4.3v-1.1c1.4,0.5,2.8,0.8,4.3,1.1V80c3.7,0,8.9,1.4,10.6,3.2h1.1v3.2c1.5,0,2.9-0.4,4.3-1.1v4.3
	c5.5,1.6,1.9,2.8,4.3,6.4c1.4,1.1,2.8,2.1,4.3,3.2v4.3h2.1c-0.4,1.1-0.7,2.1-1.1,3.2l3.2,1.1v1.1h-1.1c-2,0.9,2.1,1.1,2.1,1.1
	c0.4,2.5,0.7,5,1.1,7.4c1.9,1,1.7,1.5,4.3,2.1v4.3l-1.1,1.1h1.1c0.7,1.3,1,2.8,1.1,4.3h3.2v1.1h1.1v4.3h2.1v1.1h-1.1v1.1h1.1v4.3
	h1.1v2.1h1.1c-0.4,1.1-0.7,2.1-1.1,3.2c0.7-0.4,1.4-0.7,2.1-1.1v3.2h1.1c0.4,1.1,0.7,2.1,1.1,3.2c0.7,0.4,1.4,0.7,2.1,1.1
	c1,2.1-0.8,3.2-1.1,4.3c0.7,0.4,1.4,0.7,2.1,1.1v1.1h2.1c-0.4,0.7-0.7,1.4-1.1,2.1h1.1c0.7,1.8,0.4,3.8,1.1,5.3l3.2,1.1
	c0.3,3.8,1.4,4.2,2.1,7.4h3.2c0.6,2.5,0.3,2,2.1,3.2v1.1l6.4,1.1v-1.1h3.2v-1.1h1.1v-2.1c0.7-0.4,1.4-0.7,2.1-1.1v-3.2
	c0.7-0.4,1.4-0.7,2.1-1.1c0.8-1.9-0.6-1.6-1.1-2.1v-1.1h1.1v-5.3c0.7-0.4,1.4-0.7,2.1-1.1v-2.1c0.7-0.4,1.4-0.7,2.1-1.1
	c0.4-2.5,0.7-5,1.1-7.4h-1.1v-1.1h1.1c0.4-3.9,0.7-7.8,1.1-11.7h2.1v-5.3h1.1c-0.4-3.5-0.7-7.1-1.1-10.6h3.2v-1.1h-1.1
	c-0.9-1.3-0.9-3,0-4.3h2.1c1-1.2-1-0.9-1.1-1.1c-0.5-1.5,1.8-1.5,2.1-2.1c-0.4-2.1-0.7-4.3-1.1-6.4h2.1c-0.1-2.4-0.9-2.8-1.1-4.3
	h1.1c0.4-1.4,0.7-2.8,1.1-4.3c0.7-0.4,1.4-0.7,2.1-1.1c0.4-2.1,0.7-4.3,1.1-6.4h2.1v-4.3h2.1c0.6-2.1-0.1-0.9,1.1-2.1
	c1.7-2.1,7.9-5,11.7-5.3v-2.1c1.2,0.5,3.8,2.6,5.3,2.1c0.7-0.2,1.3-3.7,4.3-3.2v1.1h2.1v1.1c1.2,0.4,2.5-0.1,3.2-1.1l4.3,1.1v-1.1
	l6.4-1.1v1.1h2.1v1.1c3.3,0.7,2.1-2.9,5.3-2.1c0.4,0.7,0.7,1.4,1.1,2.1c1.4-0.1,2.7-1.9,5.3-1.1v1.1l5.3,1.1v-1.1h2.1v-1.1l10.6,1.1
	c0.6-0.2,0.1-2.6,3.2-2.1v1.1h4.3v1.1c1.5,0.1-0.2-0.3,1.1-1.1l5.3,1.1v1.1l3.2-1.1v1.1h5.3V80h1.1v-1.1h1.1V80h1.1
	c0.9-0.7-0.4-1.5,1.1-1.1V80c3.4,1.4,3.6,2,8.5,2.1v3.2h3.2c0,6,0.3,12.1,1.1,18.1h-2.1c0.1,2.5,0.8,2.7,1.1,4.3h-1.1
	c-1,2.4-1,2.5,0,4.3l-3.2,1.1c-0.9,1.8,1.1,3.2,1.1,3.2c-0.4,1.1-0.7,2.1-1.1,3.2h1.1v1.1h-1.1c0.4,1.4,0.7,2.8,1.1,4.3h-1.1v1.1
	c0,0-5.1,0-3.2,1.1h1.1c-1.6,4.6,0.9,5.3,0,8.5h-1.1v3.2h-1.1c-0.4,1.1-0.7,2.1-1.1,3.2h2.1v1.1h-3.2v2.1h1.1c0.8,3.6-1.7,3.7,0,8.5
	h-3.2v4.3h2.1c-0.6,0.8-1.3,1.5-2.1,2.1v3.2h-1.1c0.4,1.1,0.7,2.1,1.1,3.2c-0.7,0.4-1.4,0.7-2.1,1.1v7.4h-2.1
	c0.6,2.6,1.1,2.3,2.1,4.3h-3.2c0.5,2.9,1.3,7.9,0,10.6c-0.7,0.4-1.4,0.7-2.1,1.1l1.1,1.1c-0.4,2.1-0.7,4.3-1.1,6.4h-2.1v5.3l1.1,1.1
	h-1.1c-0.4,2.1-0.7,4.3-1.1,6.4h-1.1c-0.3,0.9,0.1,1.8,1,2.1c0,0,0,0,0.1,0v1.1h-1.1v3.2c-0.7,0.4-1.4,0.7-2.1,1.1
	c-0.3,1.6,2,1.5,2.1,2.1c0.6,3.1-1.8,2.4-2.1,3.2c0.4,1.4,0.7,2.8,1.1,4.3l-3.2,2.1c0.4,1.1,0.7,2.1,1.1,3.2h-1.1
	c-1.1,4.1-0.2,3.3,0,7.4c-0.7-0.4-1.4-0.7-2.1-1.1v4.3h-1.1c-1.2,2.2,1.3,3.1,1.1,4.3c-1,0.7-1.4,2-1.1,3.2h1.1v5.3l-3.2,1.1v1.1
	h1.1c-0.4,1.1-0.7,2.1-1.1,3.2l-3.2,1.1c0.7,1.5,2.5,3.1,2.1,5.3h-1.1v3.2c-0.4,1.4-1.4-0.4-1.1,1.1h2.1c0.3,1.5-0.7-0.4-1.1,1.1
	v3.2l-3.2,2.1v2.1h-1.1c-0.8,3.3,3,2.1,2.1,5.3c-0.7,0.4-1.4,0.7-2.1,1.1v6.4h-1.1c0.4,1.8,0.7,3.5,1.1,5.3h-1.1
	c-0.4,1.1-0.7,2.1-1.1,3.2c-0.7,0.4-1.4,0.7-2.1,1.1c-1.3,2.8-0.2,8.1,0,10.6h-1.1v-1.1c-0.9-2-1.1,2.1-1.1,2.1h1.1v2.1h1.1
	c-0.1,1.8-1.9,1.6-2.1,2.1c-0.4,2.8-0.7,5.7-1.1,8.5c-0.7,0.4-1.4,0.7-2.1,1.1c-0.8,1.9,0.7,1.6,1.1,2.1v1.1h-1.1v6.4h-1.1
	c-0.4,1.4-0.7,2.8-1.1,4.3h-1.1c0.4,0.7,0.7,1.4,1.1,2.1c-0.1,2.2-2.3,4.2-2.1,5.3l1.1,1.1h-3.2c0.2,1.4,0.6,2.9,1.1,4.3
	c-0.7,0.4-1.4,0.7-2.1,1.1c-0.6,1.3-0.6,3.1-1.1,4.3l-5.3,1.1v2.1h-2.1v2.1c-2.9,0.8-2.4,0.3-3.2,3.2h-4.3V368h-1.1
	c-0.7,1-2,1.4-3.2,1.1V368h-1.1l-3.2,1.1c-0.2-0.8-1-1.3-1.9-1.2c-0.1,0-0.2,0.1-0.3,0.1c-0.7,1.1-1.4,2.1-2.1,3.2
	c-2.6,0.8-2.1-1.6-3.2-2.1c-1.3,0.1-1.9,1.9-4.3,1.1c-0.4-0.7-0.7-1.4-1.1-2.1h-1.1v1.1h-4.3v1.1h-1.1v-1.1
	c-2.6-0.4-6.1,1.1-6.4,1.1v-1.1l-5.3-1.1v1.1h-4.3v1.1c-0.7-0.4-1.4-0.7-2.1-1.1c-0.4,0.7-0.7,1.4-1.1,2.1l-5.3-1.1v1.1h-1.1v-1.1
	h-4.3v-1.1h-4.3v1.1h-8.5v-1.1c-0.7,0.4-1.4,0.7-2.1,1.1v-1.1l-9.6,1.1v-1.1h-2.1V368l-4.3,1.1c-0.4-0.7-0.7-1.4-1.1-2.1l-11.7-1.1
	c-1.1-4.1-3.1-3.3-4.3-7.4l-3.2-1.1v-3.2h-2.1V350c-4-1.1-3.4-2.3-5.3-5.3c-0.7-0.4-1.4-0.7-2.1-1.1v-5.3h-1.1v-1.1h1.1v-1.1h-2.1
	V334h-2.1c0.7-2.3,1.2-2.5,0-5.3h-1.1v-4.3h-1.1v-4.3h-1.1c-1-1.6-0.8-2.6-1.1-5.3c-2.1-0.6-0.9,0.1-2.1-1.1c1.2-1.2,0.4,0,1.1-2.1
	h-3.2c0.6-2.1-0.1-0.9,1.1-2.1c-1.1-4.2-3-3.7-3.2-9.6c-4-0.9-4.3-2.5-4.3-7.4h-2.1c-0.4-2.1-0.7-4.3-1.1-6.4h-2.1v-4.3h-3.2
	c0.7-4,0.7-3.4,0-7.4h-2.1c0-1.5-0.4-2.9-1.1-4.3c-0.7,0.4-1.4,0.7-2.1,1.1v-1.1l-3.2-1.1v-1.1h-5.3v2.1c-2.9,0.8-2.4,0.3-3.2,3.2
	h-1.1c0.4,1.1,0.7,2.1,1.1,3.2c-0.7,0.4-1.4,0.7-2.1,1.1v1.1h-2.1c0.4,0.7,0.7,1.4,1.1,2.1c-0.7,0.4-1.4,0.7-2.1,1.1
	c-0.4,2.5-0.7,5-1.1,7.4c0.9,0.3,1.3,1.2,1.1,2.1h-1.1v2.1h-1.1c-0.4,3.2-0.7,6.4-1.1,9.6h-1.1c-1.3,3.1-0.5,2.9,0,5.3
	c-0.7,0.4-1.4,0.7-2.1,1.1v4.3c-0.7,0.4-1.4,0.7-2.1,1.1v1.1h1.1v4.3h-1.1c0.4,1.1,0.7,2.1,1.1,3.2h-1.1c-0.4,2.1-0.7,4.3-1.1,6.4
	h-1.1v5.3h-1.1v3.2h-1.1v1.1h1.1v1.1h-1.1v2.1c0.4,0.7,0.7,1.4,1.1,2.1v1.1h-1.1c-1.6,2.7-1.8,1.9-2.1,6.4h-2.1
	c0.2,1.5,0.6,2.9,1.1,4.3h-2.1c-1.3,1.4-1,3.6-1.1,6.4l-6.4,2.1v2.1l-5.3-1.1c-2.6,3.1-4.2,2.4-9.6,3.2v1.1
	c-1.5,0.2,0.4-0.6-1.1-1.1h-2.1V368c-1.8-0.4-1.8,1-2.1,1.1h-21.3v1.1h-2.1v1.1l-7.4-1.1v-1.1c-1.3-0.2-1.8,1.6-4.3,1.1v-1.1h-4.3
	v1.1c-0.7-0.4-1.4-0.7-2.1-1.1c-0.9-0.1-1.7,0.3-2.1,1.1h-1.1v-1.1h-6.4l-1.1,1.1c-0.4-0.7-0.7-1.4-1.1-2.1
	c-0.7,0.4-1.4,0.7-2.1,1.1c-2.1,0.1-2.1-1.1-2.1-1.1l-10.6,1.1c-0.4-1.1-0.7-2.1-1.1-3.2h-5.3v-1.1c-1.2-1.2-0.4,0-1.1-2.1h-4.3
	l-3.2-9.6c-0.7-0.4-1.4-0.7-2.1-1.1c-1.7-3.9,2.5-7.5,3.2-9.6v-6.4c0,0,1.3,0.2,1.1-2.1c-0.9-0.3-1.4-1.2-1.1-2c0,0,0-0.1,0-0.1
	c0.7-0.4,1.4-0.7,2.1-1.1c0.1-1.5-0.2,0.2-1.1-1.1c0.3-1.5,0.6,0.4,1.1-1.1v-5.3h2.1c-0.4-2.5-0.7-5-1.1-7.4h2.1
	c-0.4-3.4-1-3.1-2.1-5.3c3.6-0.9,3.3-2,3.2-6.4c-0.7-0.4-1.4-0.7-2.1-1.1c0.2-1.1,1.1-1.9,2.1-2.1c-0.4-1.8-0.7-3.5-1.1-5.3h-1.1
	c0.4-1.1,0.7-2.1,1.1-3.2h1.1v-1.1h-1.1c0.4-1.1,0.7-2.1,1.1-3.2h-1.1c-1.4-2.2-1.7-2-5.3-2.1v1.1l-5.3,1.1v4.3h-2.1
	c-0.4,1.1-0.7,2.1-1.1,3.2h-1.1v2.1c-1.8,0.7-3.5,1.4-5.3,2.1c0.4,1.1,0.7,2.1,1.1,3.2c-3.2,0.3-2.9,0.1-4.3,2.1h-1.1v1.1h1.1
	c-0.4,0.7-0.7,1.4-1.1,2.1l-3.2,1.1v4.3h-3.2v1.1c-1.3,1-1.1,2.4-2.1,3.2h-2.1v1.1c-1.6,1.5-1.4,0.5-2.1,3.2h-2.1
	c-1.1,2.5-2.4,3.5-3.2,6.4h-2.1c-0.4,1.1-0.7,2.1-1.1,3.2l-1.1-1.1c-1.8,0.7-3.5,1.4-5.3,2.1c-0.6,1.3-1,2.8-1.1,4.3
	c-4.9,0.7-2.6,1-5.3,3.2v1.1h-3.2v2.1l-6.4,1.1v4.3c-1.2,0.9-0.2-0.1-1.1,1.1c-2.5-0.4-4.4-2-6.4,0c-0.4,1.1-0.7,2.1-1.1,3.2
	l-1.1-1.1l-6.4,2.1c-0.4,1.1-0.7,2.1-1.1,3.2l-6.4,1.1c-0.4,0.7-0.7,1.4-1.1,2.1l-6.4,1.1c0,0-1.1-1.9-2.1-2.1l-3.2,4.3l-13.8,1.1
	v2.1h-2.1c-1-0.4-0.6-3-3.2-2.1v1.1c-4.4,1.1-1.3,1.4-3.2,3.2h-1.1c-0.9-0.2-0.9-3.9-4.3-1.1v2.1l-3.2-1.1V368
	c-1-0.1-2.6,1.7-5.3,1.1V368h-4.3c0,0,0,1.1-2.1,1.1V368h-1.1v1.1h-4.3v1.1h-1.1c0,0-3.9-1.9-7.4-1.1c0,0-0.4,1.5-3.2,1.1v-1.1
	c-0.7,0.4-1.4,0.7-2.1,1.1h-1.1v-1.1h-6.4v1.1l-3.2-1.1v1.1h-7.4v1.1c-1.7-0.2-1.9-2-2.1-2.1h-4.3v1.1c-0.7-0.4-1.4-0.7-2.1-1.1v1.1
	l-7.4-1.1c-0.4,0.7-0.7,1.4-1.1,2.1h-2.1v-2.1l-4.3,1.1c-0.7-1-2-1.4-3.2-1.1v1.1h-6.4v-1.1h-5.3c-2.4,0.2-6,2.3-9.6,1.1v-1.1h-2.1
	V368c-1.4-0.3-8.9,2-12.8,1.1V368H979v1.1l-5.3-1.1V367c-1.3-0.1-2.7,1.8-5.3,1.1c-4-1.1-9-2.7-13.8-3.2v-2.1l-3.2-1.1v2.1h-1.1
	v-1.1h-2.1v-1.1h-4.3c-0.4-0.7-0.7-1.4-1.1-2.1c-3.1-1.7-5.4-0.5-8.5,0v-3.2c-3.2-0.3-3.4-0.7-5.3-2.1v-1.1h-2.1v-1.1h-2.1V351h-3.2
	c-0.4-1.1-0.7-2.1-1.1-3.2l-2.1-1.1v-2.1l-3.2-2.1v-2.1h-5.3c-0.4-0.7-0.7-1.4-1.1-2.1h1.1v-1.1h-1.1c-1.1-1.2-1.8-2.7-2.1-4.3
	l-4.3-1.1v-7.4h-3.2c-0.4-1.4-0.7-2.8-1.1-4.3h-2.1c-0.3-2.4-0.2-2.7-1.1-4.3H894v-4.3l-2.1-1.1c-0.9-2.4,0.7-4.1,1.1-5.3h-3.2v-4.3
	l-3.2-1.1c0.9-4.1-2.5-9.9-3.2-15.9l-7.4-1.1c-1.2,2.2-1.7,1.9-2.1,5.3h-2.1c-0.4,1.8-0.7,3.5-1.1,5.3h-2.1v4.3l-2.1,1.1
	c0.4,1.1,0.7,2.1,1.1,3.2h-2.1c0.4,0.7,0.7,1.4,1.1,2.1c-1.4,0.7-0.4,0.6,1.1,1.1v2.1h-3.2v4.3l-2.1-1.1v9.6h1.1v1.1h-1.1v4.3
	c-0.4,0.9-2.1,0.4-2.1,2.1h1.1c-0.7,2.1-2.7,1.9-2.1,5.3h1.1v1.1h-1.1c0.4,1.1,0.7,2.1,1.1,3.2h-1.1c-0.4,2.1-0.7,4.3-1.1,6.4h-2.1
	c0.4,1.4,0.7,2.8,1.1,4.3h-2.1c-0.1,5-5.8,16.4-8.5,13.8v4.3h-1.1v-1.1c-1.7-0.8-3.7,0.5-4.3,1.1v2.1c-0.5,0.3-2.3-1.7-4.3-1.1v1.1
	l-4.3,1.1l-1.1-1.1v1.1h-2.1v1.1l-10.6,1.1c-0.4-0.7-0.7-1.4-1.1-2.1l-3.2,1.1v-1.1H810v2.1c-3.1-0.9-6.3-1.6-9.6-2.1v1.1l-3.2,1.1
	c-0.4-0.7-0.7-1.4-1.1-2.1l-5.3,1.1c-0.3-0.8-1.3-1.3-2.1-1.1v1.1h-3.2v1.1c-1.7,0.3-1.4-1.9-2.1-2.1c-0.9-0.3-1.8,0.2-2.1,1
	c0,0,0,0,0,0c-0.9,0.2-1.8-0.2-2.1-1.1c-2.5-0.3-2.7,1.3-4.3,2.1c-0.1-1-0.6-4.5-1.1-2.1l-2.1-1.1v1.1c-2.4,1-1.8,0.8-4.3,0
	c-0.8,0.6-0.8,2.2-2.1,3.2v-1.1l-5.3-1.1c-0.4-1.1-0.7-2.1-1.1-3.2c-3.3,1.3-11.2,2.7-13.8,1.1c-0.4-1.1-0.7-2.1-1.1-3.2
	c-1.6-2-4.1-2.8-7.4-3.2v-3.2h-2.1v-2.1h2.1v-1.1c-4.3-2.9-2.6-13.5-2.1-18.1h-3.2v-1.1h-1.1c-0.4-0.8,0-1.7,0.7-2
	c0.1,0,0.2-0.1,0.3-0.1c-0.4-1.1-0.7-2.1-1.1-3.2l-3.2,1.1H726v-1.1c-2.2-0.1-2.1,1.1-2.1,1.1l-2.1-1.1v1.1c-2.9,2.4-2,3.7-7.4,4.3
	c-0.4,1.1-0.7,2.1-1.1,3.2h-1.1v-1.1l-6.4,2.1c-0.4,1.1-0.7,2.1-1.1,3.2c-1.5,1-3.2-0.4-4.3,1.1v3.2h-1.1v-1.1l-7.4,1.1v2.1h-7.4
	c-0.4,1.1-0.7,2.1-1.1,3.2l-7.4,1.1c-0.4,0.7-0.7,1.4-1.1,2.1l-2.1-1.1l-1.1,1.1v-1.1h-1.1v1.1h-3.2v1.1h-4.3
	c-0.4,0.7-0.7,1.4-1.1,2.1h-7.4v1.1l-3.2-1.1v1.1h-2.1c-0.4,0.7-0.7,1.4-1.1,2.1l-2.1-1.1c-4.1,2-5.3,2.1-11.7,2.1v2.1h-2.1v-2.1
	c-2.5,0.3-2.7,0.2-4.3,1.1v1.1l-6.4-1.1c-0.4,0.7-0.7,1.4-1.1,2.1c-3.2,1.3-5.2-1.6-7.4-1.1v1.1h-3.2c-0.4,0.7-0.7,1.4-1.1,2.1
	l-3.2-1.1V367c-1.8-0.5-1.9,1-2.1,1.1l-4.3-1.1c-0.4,0.7-0.7,1.4-1.1,2.1h-6.4V368H591v1.1l-3.2-1.1c-2.5-0.2-4,0.2-4.3,2.1h-1.1
	V368l-17,1.1c-2.6-0.2-5.8-2.1-9.6-1.1v1.1h-9.6v1.1l-3.2-1.1V368c-0.6-0.1-2,1.2-4.3,1.1l-5.3-1.1c-0.6,0.8-1.4,1.5-2.1,2.1V368
	c1.2-1.2,0.4,0,1.1-2.1l-11.7,1.1v-1.1h-5.3v1.1c-3.8,0.8-4.5-2.8-7.4-2.1v1.1l-3.2,1.1c0-1.5-0.4-2.9-1.1-4.3
	c-0.8,0.6-1.5,1.3-2.1,2.1h-4.3v-1.1h-3.2v-1.1l-2.1-1.1c-1.3,0.7,0.4,1.4-1.1,1.1v-1.1H490v1.1c-1.5-0.2-1.6-0.8-4.3-1.1
	c0,0,0-2.1-1.1-1.1v2.1c-4.6-0.5-2.8-1.5-7.4-2.1v-2.1c-2.8,0.9-4.9,1.3-8.5-1.1l-1.1-2.1l-4.3-1.1v-1.1l-8.5-1.1V351h-2.1l-2.1-3.2
	l-5.3-1.1v-2.1l-6.4-1.1l-1.1-3.2c0,0,2.3-0.2,1.1-1.1h-2.1c-1.2,1.2,0,0.4-2.1,1.1v-2.1h-2.1V334l-2.1,1.1l-1.1-4.3l-2.1-1.1v-5.3
	c-0.9-1.5-2.9,0-4.3-1.1v-1.1c1.2-1.2,0.4,0,1.1-2.1H422c-0.8-3.4-2.4-3.9-3.2-7.4c-1.5,0-2.9-0.4-4.3-1.1v-1.1l-3.2,1.1v4.3
	c-3.6,1-2,1.3-4.3,3.2v1.1H405c-0.4,3.9-0.7,7.8-1.1,11.7h-1.1v3.2l-2.1,1.1c-0.8,1.9,0.7,1.6,1.1,2.1c-0.1,1.5-0.7-0.4-1.1,1.1v6.4
	h-1.1c-0.9,1.5-0.7,1.8-1.1,4.3h-3.2v1.1h1.1c0.7,1.5-1.8,6.1-2.1,8.5c-4.3,1.2-1.5,1.8-3.2,3.2h-1.1v-1.1l-3.2,1.1
	c-1.1,4.3-0.5,1.3-3.2,3.2v1.1c-1.5,1-2.7,1-5.3,1.1v1.1h-5.3V367l-9.6,3.2v-1.1h-3.2V368l-3.2,1.1v1.1h-1.1v-1.1
	c-4.3-0.5-8.6-0.2-12.8,1.1c-1.5-0.1,0.4-0.7-1.1-1.1h-11.7v1.1h-5.3v-1.1c-2.5-0.6-2.9,1.2-4.3,1.1v-1.1c-2.2-0.4-4.4,0-6.4,1.1
	v1.1c-2.2-0.1-3-3.1-6.4-2.1c-0.6,0.2-0.6,2.6-2.1,2.1L304,368c-1.2-0.4-2.5,0-3.2,1.1c-2.1,0.3-2.1-1.1-2.1-1.1l-7.4,1.1V368
	c-1.2-1.2-0.4,0-1.1-2.1l-4.3,1.1c-0.8-2.9-0.3-2.4-3.2-3.2v-3.2c-2.6-0.7-3.3-1-4.3-3.2l1.1-1.1l-2.1-1.1c0.4-2.8,0.7-5.7,1.1-8.5
	h-1.1c-0.9-4.1,1.6-3.2,2.1-4.3v-2.1h1.1c0.5-2-2.9-1.3-2.1-4.3l2.1-1.1c-0.4-1.8-0.7-3.5-1.1-5.3l2.1-1.1c-0.5-1.4-0.9-2.8-1.1-4.3
	h2.1l-1.1-2.1l2.1-1.1V316h1.1c-0.4-2.5-0.7-5-1.1-7.4l4.3-3.2c0.9-2.8-1.9-2.5-2.1-3.2v-6.4h3.2c0.4-5.3,0.7-10.6,1.1-15.9h3.2
	v-1.1h-1.1c-1.1-2.8,2.5-2.2,2.1-4.3h-1.1c-0.3-1.5-1.1-7.4-1.1-7.4l2.1-1.1c1.6-2.4,0.2-2.9,0-6.4l3.2-1.1c-0.5-2.3-1-1,0-4.3h1.1
	c0.5-1.8-1-1.9-1.1-2.1c0.4-3.5,0.7-7.1,1.1-10.6h1.1c0.4-2.5,0.7-5,1.1-7.4h1.1v-3.2h1.1c0.9-2.5-0.8-4-1.1-5.3h1.1
	c1-3.4,0.9-7.6,0-9.6h2.1c1-1.1-1-0.9-1.1-1.1c-1.5-1.5,1.9-1,2.1-1.1c0.4-2.1,0.7-4.3,1.1-6.4l-1.1-1.1l2.1-1.1v-1.1h-1.1l1.1-2.1
	c-0.3-0.6-1.8-0.7-1.1-3.2h1.1v-3.2c0.8-0.6,1.5-1.3,2.1-2.1c-0.9-0.4-1.7-1.2-2.1-2.1c2.2-1.5,4.5-6,4.3-9.6
	c-0.9-0.3-1.3-1.2-1.1-2.1l2.1-1.1c0.6-2.2-2.5-4.3-1.1-7.4l4.3-3.2c0.3-0.8-1.7-5.5-1.1-8.5h1.1c0.2-0.9-0.3-1.7-1.1-2.1l1.1-4.3
	h2.1c-0.4-1.8-0.7-3.5-1.1-5.3c-0.5-2.7,1.3-0.6,1.1-3.2c-0.1-1.5-1,0.4-1.1-1.1h1.1v-2.1l-1.1-1.1l2.1-1.1v-1.1h-1.1
	c-0.4-1.2,0-2.5,1.1-3.2c0.3-1.8-1-1.9-1.1-2.1c-0.7-3.3,0.6-5.1,1.1-7.4h-1.1v-1.1h-3.2v-2.1c-2.9,0.7-3.9,2-6.4,3.2
	c1,3.3,0.4,2.2,0,6.4h-2.1l-2.1,3.2H304c-0.4,1.8-0.7,3.5-1.1,5.3l-4.3,3.2v3.2h-1.1v1.1c-0.3,1.6,1.2,4.1,1.1,4.3l-3.2,1.1v2.1
	h-1.1c-1.9,2.9,1,1.9-3.2,3.2c-0.1,9.8-4.4,9.7-5.3,17h-2.1v3.2h-1.1c-0.6,2.1,1.4,3.5,1.1,4.3l-4.3,2.1c-1.2,2.2,1.5,3.2,1.1,4.3
	h-1.1l-4.3,7.4h-2.1v1.1h1.1c0.4,2.2,1.2,1.4,0,4.3h-1.1c-1.9,4.9,1.4,5.5-5.3,6.4v4.3h1.1v1.1h-1.1c-0.9,3.3-0.8,5.5-2.1,8.5h-1.1
	l-1.1,4.3h-1.1v4.3l-4.3,3.2c-0.4,2.8-0.7,5.7-1.1,8.5h-2.1c-0.2,6.6-1.1,3.1-3.2,6.4h1.1v1.1h-2.1l1.1,2.1h-1.1l-1.1,4.3h-1.1v4.3
	l-3.2,2.1l1.1,2.1h-2.1c-0.3,2.5-0.2,2.7-1.1,4.3h-1.1c0.4,1.8,0.7,3.5,1.1,5.3h-3.2c-0.4,2.1-0.7,4.3-1.1,6.4l-3.2,1.1v7.4
	l-2.1,1.1l1.1,3.2l-2.1,1.1v2.1h-2.1c-1,4.4-2.6,4-1.1,8.5h-3.2c0,4.5-0.2,7.2-2.1,9.6l-2.1,1.1c-0.4,1.8-0.7,3.5-1.1,5.3H220
	c-0.4,2.5-0.7,5-1.1,7.4l-2.1,1.1v2.1c-2,3.6-2.7,1.5-3.2,7.4h-2.1v2.1h-1.1c0.5,1.4,0.8,2.8,1.1,4.3h-2.1c-0.7,1.7-1.1,3.5-1.1,5.3
	c-3.3,0.8-3.6,2-4.3,5.3l-3.2,1.1l1.1,3.2h-3.2v1.1c-1.2,1.2-0.4,0-1.1,2.1l-3.2,1.1v1.1L185,368v1.1c-0.9,0.3-1.8-0.2-2.1-1.1h-1.1
	l-1.1,1.1V368h-3.2l-1.1,2.1c-1.2,0.4-2.5-0.1-3.2-1.1h-1.1v1.1c-4.8,0.9-9.7-2.4-10.6-2.1l-2.1,3.2h-2.1v-2.1
	c-3,0.6-2.2,1.8-4.3,2.1v-1.1h-2.1v-1.1c-2.6-0.8-4,1.1-5.3,1.1v-1.1h-2.1V368h-1.1v2.1c-3.4-0.6-9-1.9-13.8-1.1v1.1h-1.1v-1.1
	c-2.6-0.5-3.2,1.1-3.2,1.1l-6.4-1.1v1.1h-4.3v-1.1h-8.5v1.1l-3.2-1.1v1.1h-9.6c-1.5,0.2,0.4,1.1-1.1,1.1v-1.1h-3.2v-1.1l-3.2,2.1
	v-1.1c-1.3-0.7-2.8-1-4.3-1.1v2.1h-2.1v-2.1h-5.3v1.1h-3.2c-1.4,0.4,0.4,1.3-1.1,1.1v-1.1H67v-1.1l-6.4,2.1v-2.1H50v1.1l-7.4-1.1
	v1.1h-1.1c-1.8-0.1-1.8-2-2.1-2.1l-8.5,1.1V367l-5.3,1.1v-2.1c-1.9-0.3-3.7-1-5.3-2.1v-1.1H17c-1.3-1-1-3.1-1.1-5.3h-2.1
	c-0.7-3.3-1.6-2.2-2.1-3.2V351h-1.1V350h1.1c0.4-1.2,0-2.5-1.1-3.2l1.1-3.2l-2.1-1.1l1.1-13.8H9.6v-2.1H8.5
	c-0.2-1.4,3.1-2.3,2.1-6.4H9.6v-10.6H8.5v-1.1c0.3-0.6,1.6-0.1,1.1-3.2H8.5v-1.1h1.1l-1.1-6.4H7.4l1.1-3.2h1.1l-1.1-4.3h1.1
	c0.5-2.5-1.1-3.2-1.1-3.2l1.1-8.5H8.5v-5.3H7.4l1.1-3.2c-0.8-0.6-1.5-1.3-2.1-2.1h2.1l-2.1-3.2h1.1v-5.3h1.1v-2.1h1.1v-1.1H8.5
	l1.1-4.3H7.4l1.1-6.4H7.4l-2.1-6.4h1.1v-11.7l2.1-1.1l-1.1-9.6L5.3,216c-0.5-1.8,1-1.9,1.1-2.1v-4.3H5.3l1.1-4.3H5.3
	c-0.6-2.7,1-3.9,1.1-5.3H5.3V199h1.1v-9.6c0,0-1.4-0.4-1.1-3.2c0.1-1.4,1.9-2.7,1.1-5.3H5.3v-2.1H4.3C4,178,4.4,177,5.3,176.7
	l-1.1-7.4c0.2-0.7,2.5-0.5,2.1-2.1L3.2,165V164h1.1c0.3-2.4-1.2-3-1.1-4.3h1.1v-6.4c0,0,0.7-0.1,1.1-2.1c-4.3-1.7,0.7-4.6-1.1-11.7
	H3.2c-0.2-1.3,1.6-1.8,1.1-4.3c-0.1-0.3-1.3-0.3-1.1-2.1c0.9-0.3,1.3-1.2,1.1-2.1H3.2v-3.2H2.1v-5.3h1.1v-7.4H2.1l1.1-2.1H2.1
	l1.1-4.3H2.1v-3.2c-0.8-0.6-1.5-1.3-2.1-2.1h2.1c0.3-5.8,2-4.2,3.2-8.5H3.2c0.8-2.9,0.3-2.4,3.2-3.2l1.1-6.4h1.1v-1.1h3.2v-1.1
	l3.2-1.1V80c2.7-0.1,3.7-0.2,5.3-1.1v-1.1h7.4v-1.1l8.5,1.1l7.4-2.1v1.1l4.3,1.1l1.1-2.1l3.2,1.1v1.1l6.4-1.1v1.1l7.4,1.1v-1.1h5.3
	v-1.1c1.8-0.3,3.9,1.7,7.4,1.1v-1.1l3.2,1.1v-1.1c1.4-0.2,1.8,1.7,4.3,1.1v-1.1h9.6v-1.1l7.4,1.1v1.1L108.4,76.8z M1832.6,76.8v2.1
	h1.1v-2.1h4.3c1.5,0.2-0.4,1,1.1,1.1c0.4-0.7,0.7-1.4,1.1-2.1h1.1v1.1c1.2,1.2,0.4,0,1.1,2.1h2.1v-1.1c1.5-1.1,3.5-1.5,5.3-1.1v1.1
	h7.4c0.8-0.3,0.4-2.3,2.1-2.1v1.1h3.2v1.1c1.5,0.2,6.4-2.4,9.6-1.1c0.4,0.7,0.7,1.4,1.1,2.1l6.4-1.1v1.1c2.3,0.6,6.7,0.3,7.4-1.1
	h1.1c1.1,0.8-0.9,0.8,1.1,2.1v-2.1h3.2v1.1l6.4-1.1c0.7,1.1,1.4,2.1,2.1,3.2c0.7-0.4,1.4-0.7,2.1-1.1V81h3.2V80h1.1
	c0.4,0.7,0.7,1.4,1.1,2.1l3.2-1.1v1.1h2.1v1.1c4.1,1.3,5.4-2.5,8.5,0c1.2,1.2,0.4,0,1.1,2.1c2.9-0.7,2.4-1.4,5.3-2.1v3.2h1.1v-1.1
	c0.9-2,1.1,2.1,1.1,2.1c2.9,0,5.6,0,7.4,1.1c0.4,0.7,0.7,1.4,1.1,2.1l9.6,2.1v2.1c5.3,0.5,6,3.1,10.6,4.3v2.1
	c2.9-0.4,4.1-1.3,5.3,3.2c1.2,1.2,0.4,0,1.1,2.1h3.2v2.1h2.1v2.1h1.1v1.1h3.2c-0.4,0.7-0.7,1.4-1.1,2.1h1.1v-1.1
	c1.7,1.6,1,1.2,1.1,4.3c4.2,0.5,7.7,1.9,10.6-1.1h1.1c0.9-1.9-0.7-3.3-1.1-4.3h4.3c-0.3-1.5,0,0-1.1-1.1c0.2-1.8,2-1.7,2.1-2.1
	c0.6-1.6-1.2-4.1-1.1-4.3h2.1c-0.4-1.4-0.7-2.8-1.1-4.3h2.1c0.4-1.4,0.7-2.8,1.1-4.3c0.7-0.4,1.4-0.7,2.1-1.1
	c-0.4-0.7-0.7-1.4-1.1-2.1c0.4-1,8.9-11.4,9.6-11.7h3.2c0.8-0.7,3.3-1.1,7.4-1.1c0.4-1.1,0.7-2.1,1.1-3.2c4.8,2.1,4,1.3,10.6,1.1
	v-2.1c3.3,1.7,1.9,2,7.4,2.1v-2.1c2,0.9,4.2,1.3,6.4,1.1l1.1-1.1c1.1,0.6,0.5,2.8,3.2,2.1c0.4-0.7,0.7-1.4,1.1-2.1l10.6,1.1v1.1
	l3.2-1.1c0.4,0.7,0.7,1.4,1.1,2.1h1.1v-1.1h3.2v-1.1c2.4-0.7,2.8,0.9,4.3,1.1c1.1-0.6,0-2.7,3.2-2.1v1.1h3.2v1.1
	c1.8,0.4,1.8-1,2.1-1.1l6.4,1.1v-1.1h3.2v-1.1h1.1c0.4,0.7,0.7,1.4,1.1,2.1c2.5,0.9,4-0.9,5.3-1.1v1.1l4.3,1.1v-1.1h2.1v-1.1h6.4
	v-1.1l8.5,1.1v2.1h1.1v-1.1c1.2-1.2,0.4,0,1.1-2.1h2.1v2.1l12.8-1.1l4.3,1.1v-1.1l6.4,1.1v-1.1h15.9v1.1c0.8,0.1,2.8-1.7,5.3-1.1
	v1.1h4.3v-1.1h8.5v-1.1c3.3-0.4,2,1.5,3.2,2.1h2.1v1.1c0.9,0.3,1.8-0.1,2.1-1c0,0,0-0.1,0-0.1c1.3-0.2,1.8,2,4.3,1.1
	c0.4-0.7,0.7-1.4,1.1-2.1h2.1v2.1l3.2,1.1v-2.1l3.2-1.1c0.4,0.7,0.7,1.4,1.1,2.1c2.4,0.9,2.9-1.1,4.3-1.1v1.1h6.4v-2.1l1.1,1.1h6.4
	v1.1h4.3V80h1.1v-1.1h2.1v-1.1h2.1v-1.1c1-0.1,6.9,1.8,8.5,2.1v-2.1l4.3,1.1v1.1l11.7,1.1v2.1h2.1c-0.4,1.1-0.7,2.1-1.1,3.2
	c5.1,0.3,5.1-0.9,5.3,4.3h1.1c-0.4,1.1-0.7,2.1-1.1,3.2c0.7,0.4,1.4,0.7,2.1,1.1c-0.4,1.1-0.7,2.1-1.1,3.2h1.1l-3.2,23.4l-3.2,1.1
	c0.7,4.3,0.4,3.9,0,8.5h2.1c-1.2,2.2-1.7,1.9-2.1,5.3h-2.1v3.2h-2.1v3.2c-0.7,0.4-1.4,0.7-2.1,1.1c0.4,1.4,0.7,2.8,1.1,4.3h-2.1
	c-0.7,1.7-1.1,3.5-1.1,5.3h-2.1v3.2h-2.1c-0.7,1.4-1.7,1.4-2.1,2.1v2.1l-3.2,2.1c0.4,0.7,0.7,1.4,1.1,2.1h-1.1
	c-1.2,1.2,0,0.4-2.1,1.1v3.2h-3.2v4.3c-3.8,0.4-3.2,1.3-6.4,2.1c-0.4,2.1-0.7,4.3-1.1,6.4h-2.1v3.2h-4.3c0.4,1.4,0.7,2.8,1.1,4.3
	l-4.3-1.1v3.2h-2.1l-3.2,9.6h-3.2v2.1l-3.2-1.1c-0.1,2.7-0.1,3.7-1.1,5.3h-1.1c0.4,0.7,0.7,1.4,1.1,2.1h-2.1
	c-1.2,1.2-0.8,2.1-1.1,4.3h-2.1v2.1c-3.4,0.3-4.1,1.1-6.4,2.1c0.1,3.4,2.1,2-1.1,3.2v2.1l-3.2,2.1c0.4,1.1,0.7,2.1,1.1,3.2h-5.3v1.1
	h-1.1v5.3c-0.7,0.4-1.4,0.7-2.1,1.1v4.3h-1.1c-1.2-1.8-0.7-1.4-3.2-2.1v4.3c-1.8,0.8-5.5,2.8-6.4,4.3c-2.1,3.3,1.9,2.7-3.2,4.3
	c-0.6,5.1-2,3.1-3.2,7.4h-3.2v3.2h-1.1c-1.2,1.2,0,0.4-2.1,1.1v3.2l-3.2,1.1c0.4,1.1,0.7,2.1,1.1,3.2c-2.2,2.2-2.7-1.9-4.3,3.2h-3.2
	c-0.4,1.8-0.7,3.5-1.1,5.3l-3.2,1.1v4.3h-3.2v2.1h-2.1v3.2c-0.7-0.4-1.4-0.7-2.1-1.1c-1.6,1.4,0.1,3.3-1.1,5.3h-1.1
	c-0.4,0.7-0.7,1.4-1.1,2.1h-2.1v1.1h-1.1c-2.1,3.1,1.9,2.8-3.2,4.3c-1.2,1.2,0,0.4-2.1,1.1c-0.7,5.5-2.4,3-3.2,8.5h-2.1v3.2h-3.2
	v4.3l-4.3-1.1c-0.4,2.5-0.7,5-1.1,7.4h-1.1c-1.3,1.7-3.2,2.8-5.3,3.2c-1.3,4.4-2.3,2.6-4.3,5.3h-1.1c0.4,1.1,0.7,2.1,1.1,3.2h-2.1
	c-0.6,0.8-1.3,1.6-2.1,2.1c0.4,1.1,0.7,2.1,1.1,3.2l-5.3,1.1v4.3c-3.4,0.8-3.9,1.4-4.3,5.3l-4.3,1.1c-0.4,3.9-0.9,4.5-4.3,5.3v3.2
	l-4.3-1.1v1.1h-1.1v3.2h-4.3c-0.8,2.9-0.3,2.4-3.2,3.2v1.1l-7.4-1.1v2.1c-1.5-0.6-3.6-1.7-6.4-1.1v1.1h-1.1c-0.2-0.8-1-1.3-1.8-1.2
	c-0.1,0-0.2,0.1-0.3,0.1c-0.7,1.1-1.4,2.1-2.1,3.2l-3.2-1.1v-1.1c-0.7,0.4-1.4,0.7-2.1,1.1v-1.1h-4.3v1.1h-1.1v-1.1h-5.3v2.1
	l-13.8-2.1v2.1c-3.3-0.2-5-2-7.4,0c-0.4-1.1-0.7-2.1-1.1-3.2c-1.5-0.5-1.6,2-2.1,2.1l-3.2-1.1c-0.4,0.7-0.7,1.4-1.1,2.1h-1.1v-2.1
	h-5.3V368h-1.1c-0.4,0.7-0.7,1.4-1.1,2.1l-5.3-1.1v1.1c-0.7-0.4-1.4-0.7-2.1-1.1c-2.3-0.1-2.1,1.1-2.1,1.1l-12.8-1.1V368l-5.3,1.1
	V368h-5.3V367h-2.1v-1.1c-1.5-1-1.8-0.7-4.3-1.1c-0.7-2.1-1.4-4.3-2.1-6.4h-1.1c0.7-3.5,1.4-7.1,2.1-10.6h3.2v-1.1
	c-1-0.9-1.7-2-2.1-3.2h4.3v-3.2h2.1v-3.2l3.2-1.1c-0.4-1.1-0.7-2.1-1.1-3.2h1.1c1.8-2.5,1.9-0.1,3.2-4.3h2.1
	c0.7-1.5,1.5-1.3,2.1-2.1c2-2.7-1.2-2,3.2-3.2c0.4-1.1,0.7-2.1,1.1-3.2c0,0-2.3-0.2-1.1-1.1h2.1c1.2-1.2,0-0.4,2.1-1.1
	c1.2-5.6,2.6-3.4,5.3-6.4c-0.4-0.7-0.7-1.4-1.1-2.1h1.1c1.5-1.9,2.4-2.5,3.2-5.3h2.1c-0.4-0.7-0.7-1.4-1.1-2.1h1.1
	c1.3-2,1.4-2.6,4.3-3.2v-3.2h2.1v-2.1h4.3c0.3-5.4,1.5-3.7,2.1-8.5h2.1v-3.2h3.2c0.6-0.8,1.3-1.5,2.1-2.1c0.8-1.8-0.6-1.6-1.1-2.1
	l3.2-4.3c1.6-1,3.3,0.4,4.3-1.1c-0.4-1.1-0.7-2.1-1.1-3.2h2.1V266h3.2v-1.1c1.4-1.2,1.6-1.9,2.1-4.3h3.2c-0.4-0.7-0.7-1.4-1.1-2.1
	h1.1c0.7-1.1,1.4-2.1,2.1-3.2l3.2-1.1v-2.1c0.7-0.4,1.4-0.7,2.1-1.1c0.4-1.4,0.7-2.8,1.1-4.3c0.7-0.4,1.4-0.7,2.1-1.1l3.2-5.3h3.2
	c0.4-1.8,0.7-3.5,1.1-5.3h4.3v-1.1h1.1v-6.4h2.1v-2.1l4.3-1.1v-3.2h2.1c0.4-1.8,0.7-3.5,1.1-5.3l3.2-1.1v-3.2h4.3
	c0.4-1.1,0.7-2.1,1.1-3.2h1.1c-0.4-0.7-0.7-1.4-1.1-2.1h2.1c0.4-0.7,0.7-1.4,1.1-2.1h1.1c2.2-3.7-2.8-3.6,3.2-5.3
	c1.2-1.2,0-0.4,2.1-1.1v-2.1h2.1c0.7-3.5,1.9-4.1,2.1-8.5c4.9-0.7,2.6-1,5.3-3.2v-1.1h4.3v-4.3h3.2c0.1-3.2,0.4-6.8,2.1-8.5h2.1
	c-0.4-1.1-0.7-2.1-1.1-3.2h1.1V164h1.1c1.3-3.1,0.3-2.2,0-5.3h-2.1v-3.2h-2.1v-3.2l-8.5-1.1v-1.1c-1.4,0.7-2.8,1.4-4.3,2.1
	c-0.4-1.1-0.7-2.1-1.1-3.2l-7.4,1.1v-1.1h-1.1v1.1c-1.8-0.4-3.5-0.7-5.3-1.1c-0.7,0.2-0.5,2.4-2.1,2.1v-1.1h-4.3v-1.1h-7.4v1.1
	c-1.8,0.3-1.9-1-2.1-1.1l-6.4,1.1v-1.1h-2.1V148l-3.2,1.1v1.1h-2.1v-1.1h-1.1v1.1h-6.4c-1.1,0.8,0.4,1.4-1.1,1.1
	c-0.4-0.7-0.7-1.4-1.1-2.1h-4.3V148l-3.2,1.1c-0.3-0.9-1.2-1.4-2-1.1c0,0-0.1,0-0.1,0c-0.4,0.7-0.7,1.4-1.1,2.1l-9.6,1.1
	c0.4-0.7,0.7-1.4,1.1-2.1h-8.5V148c-1.2-0.7-3.2-0.2-3.2,1.1h-1.1v-2.1h-3.2v-2.1h-1.1v1.1c-0.9,2-1.1-2.1-1.1-2.1h-4.3v2.1h-2.1
	v3.2h-3.2v1.1h-1.1v3.2c-2.9,0.8-2.4,0.3-3.2,3.2h-1.1c-0.7,1.3-0.2,4.3,1.1,4.3v1.1h-2.1c-0.2,2.8-0.2,3.6-1.1,5.3h-1.1
	c0.4,1.8,0.7,3.5,1.1,5.3h-2.1c-0.4,2.3-1,2-1.1,2.1v6.4h-1.1v2.1h-1.1c0.1,1.3,2.3,4.8,1.1,7.4l-3.2,2.1c0.2,1.4,1.8,2.6,1.1,5.3
	c0,0-1.1-0.1-1.1,2.1c0.8,1.2,1.4-0.4,1.1,1.1h-1.1v2.1h-1.1c0.4,3.2,0.7,6.4,1.1,9.6h-3.2v6.4c0,0-1-0.2-1.1,2.1
	c0.4,0.7,0.7,1.4,1.1,2.1h-1.1c-0.4,1.4-0.7,2.8-1.1,4.3h-1.1v7.4h-2.1c0.6,1.5,1.7,1.5,2.1,2.1c-0.1,1.7-1.7,1.2-2.1,2.1v3.2
	c-0.7,0.4-1.4,0.7-2.1,1.1c-1.2,2.8,0.7,5.5,1.1,7.4h-2.1c1.3,3.8,0.1,5.8-1.1,9.6v5.3c-0.7,0.4-1.4,0.7-2.1,1.1
	c0.4,1.1,0.7,2.1,1.1,3.2h-1.1v3.2h-1.1v2.1h-1.1c-0.3,1.2,1.9,1.9,1.1,4.3c-0.7,0.4-1.4,0.7-2.1,1.1c0.4,1.8,0.7,3.5,1.1,5.3h-3.2
	c0.4,2.5,0.7,5,1.1,7.4h-3.2v1.1h1.1c-0.4,1.4-0.7,2.8-1.1,4.3l-3.2,1.1c-0.1,3.9-0.7,4.2-2.1,6.4h-1.1c-2.3,4.2,2.1,4.8-4.3,6.4
	c-0.8,3.4-1.6,2.3-2.1,6.4h-2.1c-0.6,1.3-0.4,2.6-1.1,4.3h-1.1v3.2c-0.7-0.4-1.4-0.7-2.1-1.1c-0.4,0.7-0.7,1.4-1.1,2.1
	c-4.1,2.7-4.9-0.8-5.3,6.4l-4.3-1.1c-0.6,2.8-2.1,4.8-3.2,7.4h-3.2v1.1c-0.7-0.4-1.4-0.7-2.1-1.1v2.1c-1.2,1.1-2.1,0.8-4.3,1.1v2.1
	c-2.8,0.2-5.4,1.3-7.4,3.2c-0.4,0.7-0.7,1.4-1.1,2.1l-6.4,1.1c-0.4,0.7-0.7,1.4-1.1,2.1h-3.2v1.1l-4.3,1.1v3.2l-14.9,1.1
	c0.4,0.7,0.7,1.4,1.1,2.1h-4.3v1.1l-4.3,1.1v1.1c-2.4,0.9-3-1.3-4.3-1.1v1.1h-5.3v1.1h-1.1v-1.1h-4.3c-0.4,0.7-0.7,1.4-1.1,2.1
	l-3.2-1.1c-0.4,0.7-0.7,1.4-1.1,2.1l-5.3-1.1v1.1c-0.9,0.2-1.8-0.2-2.1-1.1l-3.2,1.1V368h-1.1v1.1c-2.9,1-2.4,0.9-5.3,0V368h-1.1
	v1.1h-5.3v1.1c-1.6,0.5-2.9,0.2-3.2-1.1h-1.1v2.1c-3.8-0.1-6-1.5-8.5-2.1l-3.2,1.1c-1.4,0-2.6-1.7-5.3-1.1v1.1h-4.3
	c-0.2,0-0.4-1.4-2.1-1.1v1.1h-5.3l-1.1,1.1v-1.1l-3.2-1.1V368c-3-0.7-2.4,1.8-3.2,2.1h-5.3v-1.1l-3.2,1.1v-1.1h-2.1v1.1h-1.1v-1.1
	l-9.6,1.1c-0.4-0.7-0.7-1.4-1.1-2.1c-2.5,0.7-5,1.4-7.4,2.1V368h-3.2v1.1c-1.8,0.4-1.8-1-2.1-1.1c-1.2-0.4-2.5,0-3.2,1.1
	c-0.7-0.4-1.4-0.7-2.1-1.1c-2.1-0.1-2.1,1.1-2.1,1.1c-2.5,0.6-2.8-0.8-4.3-1.1v1.1h-1.1V367h-5.3v1.1h-2.1v1.1l-3.2-1.1
	c-0.4-1.1-0.7-2.1-1.1-3.2c-2.7-0.2-7.1-2.4-8.5-2.1c0,0-0.7,1.9-2.1,2.1c-0.4-0.7-0.7-1.4-1.1-2.1h-2.1v-1.1h-2.1v-1.1
	c-1.2-0.4-2.5,0-3.2,1.1l-3.2-1.1c-0.4-1.1-0.7-2.1-1.1-3.2l-4.3,1.1v-3.2h-3.2c-1.1-1.8-2.3-2.3-4.3-3.2v-3.2
	c-6-0.7-3.4-2.6-6.4-4.3h-2.1v-2.1h-3.2c-0.5-2.5-1.2-3.3-2.1-5.3h-3.2c0.6-2.1-0.1-0.9,1.1-2.1c-0.4-1.1-0.7-2.1-1.1-3.2h-1.1v-2.1
	h-1.1v-4.3h-1.1v-1.1c0.1-0.1,2,0.1,1.1-1.1l-3.2-1.1c-0.7-1.7,1-2,1.1-2.1v-7.4h1.1c0.9-1.5,0.7-1.8,1.1-4.3
	c7.6-1.7,3.3-4.4,6.4-6.4h2.1V300c1.6,0.6,3.5,1.6,6.4,1.1V300h1.1v1.1c0.9,0.2,1.8-0.2,2.1-1.1h1.1v1.1h4.3V300
	c2.4-0.7,2.8,0.8,4.3,1.1c0.4-0.7,0.7-1.4,1.1-2.1c0.8-0.3,1.7,0.1,2.1,0.9c0,0.1,0,0.1,0.1,0.2c1.3,0.2,1.8-1.5,4.3-1.1
	c0,0,0.1,1.3,2.1,1.1V299l3.2,1.1c2,0.2,2.1-1.1,2.1-1.1l3.2,1.1h6.4V299c2.5-0.7,2.8,1.1,4.3,1.1V299l7.4,1.1V299
	c1.2-0.3,2.4,0.1,3.2,1.1l3.2-1.1c0.4,0.7,0.7,1.4,1.1,2.1h1.1V299c1.5-0.2,2.9-0.6,4.3-1.1c0,0,0.2,1.4,2.1,1.1v-1.1h1.1
	c0,0,0.3,1.4,2.1,1.1c0,0,0.2-1.4,2.1-1.1v1.1h9.6v2.1l5.3-1.1v2.1c3.4,0.8,3.7,2,8.5,2.1v1.1h-1.1c0.2,1.8,1.9,1.6,2.1,2.1v2.1h3.2
	v1.1h1.1v4.3c3.4,0.7,3.5,3.6,6.4,1.1v2.1c1.6,0.4,3,1.1,4.3,2.1v1.1c4.1,1.8,12.6-2.5,15.9-3.2V316c3.4,1.2,2.7,0.7,6.4,0v-5.3h2.1
	c0.4-5.4,1.4-4.5,3.2-8.5h1.1c1.3-4-2.1-5-2.1-5.3c0.4-1.4,0.7-2.8,1.1-4.3h1.1c-0.4-1.1-0.7-2.1-1.1-3.2h-2.1v-3.2h-1.1
	c-2.2-2.5-2.6-1.9-5.3-1.1v-3.2h-4.3l-1.1,1.1c-0.4-0.7-0.7-1.4-1.1-2.1h-5.3v-1.1c-2.5-0.7-2.8,1.1-4.3,1.1v-1.1h-5.3
	c-0.3-0.1-0.3-1.5-2.1-1.1v1.1l-4.3,1.1v1.1c-0.2,0-4.1-1.6-6.4-1.1v1.1h-4.3c-0.4-0.7-0.7-1.4-1.1-2.1h-1.1v1.1h-6.4v1.1l-3.2-1.1
	v3.2h-2.1v-3.2l-4.3,1.1c-0.3-0.8-1.3-1.3-2.1-1.1c-0.2,0.8-1.1,1.3-1.9,1.1c-0.1,0-0.1,0-0.2-0.1c-0.7-1.1-1.4-2.1-2.1-3.2
	c-1.4-0.5-5.6,2.4-8.5,1.1c-0.4-0.7-0.7-1.4-1.1-2.1c-2.6-1.5-3.5,0.3-4.3,0v-1.1c-2.4-1-4.1-1-7.4-1.1v-2.1h-4.3
	c-0.4-0.7-0.7-1.4-1.1-2.1h-2.1v-1.1l-3.2-1.1c-0.4,0.7-0.7,1.4-1.1,2.1c-0.6,2.1-1.1-2.1-1.1-2.1h-6.4c0.4-0.7,0.7-1.4,1.1-2.1
	h-1.1c-1.8-2.9-4.2-2.7-5.3-6.4c-2.5-0.7-5-1.4-7.4-2.1l1.1-1.1c0.7-4.4-4.3-2.6-6.4-4.3v-1.1c1.2-1.2,0.4,0,1.1-2.1
	c-2.9-0.7-2.4-1.4-5.3-2.1c-0.7-2.9-1.4-2.4-2.1-5.3h-3.2c0.4-1.8,0.7-3.5,1.1-5.3h-2.1c-0.2-11.3-5.2-12.5-5.3-25.5
	c-3.2-0.8-2.8-0.7-3.2-4.3c0.7-0.4,1.4-0.7,2.1-1.1c-0.4-1.4-0.7-2.8-1.1-4.3h1.1V198c-0.3-0.9-2.1-0.4-2.1-2.1h1.1
	c-0.4-0.7-0.7-1.4-1.1-2.1l3.2-1.1v-1.1h-1.1v-3.2h-1.1c0.4-2.1,0.7-4.3,1.1-6.4h2.1c-0.6-4-0.8-4.5,1.1-8.5h1.1v-3.2h1.1V164h1.1
	v-5.3h1.1c0.4-1.8,0.7-3.5,1.1-5.3c0.7,0.4,1.4,0.7,2.1,1.1v-1.1h1.1c0.7-1.2,0.2-3.2-1.1-3.2v-1.1h2.1c0.3-3.8,1.4-4.2,2.1-7.4
	l3.2-1.1c0.3-1.9,1-3.7,2.1-5.3h1.1c2.7-4.2-0.2-3.8,5.3-6.4c-0.6-1.3-1-2.8-1.1-4.3h5.3c0.4-1.1,0.7-2.1,1.1-3.2h1.1v-3.2l3.2-1.1
	c0.4-0.7,0.7-1.4,1.1-2.1h2.1c-0.4-0.7-0.7-1.4-1.1-2.1c0.8-1.3,0.4,0.3,1.1-1.1h3.2v-4.3c0.7,0.4,1.4,0.7,2.1,1.1
	c1.4-1.8,2.8-3.5,4.3-5.3h2.1c-0.4-0.7-0.7-1.4-1.1-2.1c3.3-1,4.7,3.7,6.4-3.2c4.5-0.4,4.8-2.2,8.5-3.2v-2.1h4.3v-2.1l5.3,1.1
	c0.4-1.1,0.7-2.1,1.1-3.2l7.4-1.1c0.4-1.1,0.7-2.1,1.1-3.2c1.4,0.5,6.8,2.4,9.6,1.1c0.7-1.1,1.4-2.1,2.1-3.2h3.2V81
	c0.9-0.3,1.8,0.2,2.1,1.1c0,0,0,0,0,0l6.4-2.1v2.1h1.1V81c2.7-2.2,0.4-2.6,5.3-3.2c4.2,3.8,11.3-1.5,17,0v1.1h4.3v-1.1
	c0.7,0.4,1.4,0.7,2.1,1.1c0.4-0.7,0.7-1.4,1.1-2.1c1.4,0.7,2.8,1.4,4.3,2.1v-1.1h5.3c0.7-0.3,0.5-2.5,2.1-2.1
	c0.4,0.7,0.7,1.4,1.1,2.1l6.4-1.1v1.1h2.1v1.1c2.2-0.1,1.6-2,2.1-2.1h1.1v1.1L1832.6,76.8z M1066.2,138.4v2.1h-3.2
	c-0.4,1.8-0.7,3.5-1.1,5.3c-0.7,0.4-1.4,0.7-2.1,1.1c-0.4,2.1-0.7,4.3-1.1,6.4h-1.1c-1.2,1.2,0,0.4-2.1,1.1v2.1h-1.1v5.3h-1.1
	c-0.2,0.9,0.2,1.8,1.1,2.1v1.1h-1.1v1.1h1.1c-0.4,1.8-0.7,3.5-1.1,5.3h-2.1v9.6h-2.1c0.4,2.1,0.7,4.3,1.1,6.4
	c-0.7,0.4-1.4,0.7-2.1,1.1c0.4,0.7,0.7,1.4,1.1,2.1h-1.1v5.3c-0.7,0.4-1.4,0.7-2.1,1.1v3.2h-1.1v4.3h1.1c0.1,0.9-1.6,2.7-1.1,5.3
	c0.1,0.2,1.4,0.3,1.1,2.1h-1.1v3.2h-1.1v2.1h-1.1v5.3h-1.1v1.1h1.1v1.1h-1.1v2.1c-0.7,0.4-1.4,0.7-2.1,1.1v5.3h-1.1
	c-0.9,2.9,0.5,5.9,1.1,7.4h-3.2c-0.7,4.6-1.4,9.2-2.1,13.8c0.7,0.4,1.4,0.7,2.1,1.1v1.1h-1.1v4.3h-1.1v1.1h-3.2v1.1h1.1
	c-0.4,1.4-0.7,2.8-1.1,4.3h1.1v5.3h-1.1c-0.6,2,1.4,3.7,1.1,4.3h-1.1c-1.2,1.2,0,0.4-2.1,1.1c0.4,1.8,0.7,3.5,1.1,5.3h-2.1
	c0,7.5,0.3,14.3,0,19.1h2.1v3.2h2.1c0.7,3.1,1.2,3.5,4.3,4.3c0.4,1.1,0.7,2.1,1.1,3.2c1.5,0.2,2.9,0.5,4.3,1.1v-1.1l3.2-1.1v1.1
	c1.2,1.2,0.4,0,1.1,2.1h2.1l1.1,1.1c0.4-1.1,0.7-2.1,1.1-3.2h5.3v-1.1h1.1v-3.2h1.1c1.1,1.8,2.3,2.3,4.3,3.2
	c0.2-5.2,1.8-6.9,4.3-9.6c0.7-0.4,1.4-0.7,2.1-1.1c1.9-3-1.1-3.3,0-5.3c1.4-0.7,2.8-1.4,4.3-2.1c1.1-2-1.5-3.5-1.1-4.3h2.1v-1.1
	h-1.1c0.4-0.7,0.7-1.4,1.1-2.1h-1.1c0.4-1.1,0.7-2.1,1.1-3.2c-0.8-1.3-1.4,0.4-1.1-1.1h1.1c1.2-3.8,1.9-4.1,2.1-8.5
	c3.2-0.8,2.8-0.7,3.2-4.3c-0.9-0.4-1.7-1.2-2.1-2.1h2.1v-5.3h1.1v-1.1c0-0.2-3-0.4-2.1-3.2l3.2-2.1c-0.4-1.1-0.7-2.1-1.1-3.2
	c0.7-0.4,1.4-0.7,2.1-1.1c1.8-3.8,0.3-5.6,0-9.6h2.1c-1.5-4.5-0.2-3.7,1.1-7.4c0.6-1.8-1.3-3.9-1.1-4.3l3.2-1.1
	c-0.4-1.8-0.7-3.5-1.1-5.3h1.1v-3.2h1.1v-1.1h-1.1c0.2-1.5,0.7,0.4,1.1-1.1v-5.3h2.1c-0.1-2.5-0.8-2.7-1.1-4.3
	c0.7-0.4,1.4-0.7,2.1-1.1c-0.4-2.5-0.7-5-1.1-7.4h1.1V198h1.1v-5.3h1.1v-1.1h-1.1c-0.7-3.8,4.8-4.9,2.1-7.4h2.1v-4.3
	c-0.2-1.5-0.9,0.4-1.1-1.1c0.6-1.4,0.5,0.3,1.1-1.1h1.1c-0.4-1.1-0.7-2.1-1.1-3.2h2.1c-0.4-1.1-0.7-2.1-1.1-3.2h1.1v-3.2h1.1v-5.3
	h1.1c0.3-1.8-1-1.8-1.1-2.1v-6.4c0.4-1.1,0.7-2.1,1.1-3.2h-1.1V148c-0.4-0.9-1.3,0-2.1-3.2h2.1v-1.1c-2.9-1.8-2.7-4.3-6.4-5.3v-2.1
	c-3-0.5-7.8-2.2-9.6-4.3c-3.1,0.6-2.8,2-3.2,2.1c-1.9,0.8-1.6-0.6-2.1-1.1h-1.1v1.1c-1.2,0-2.1-2.2-4.3-1.1v1.1
	C1070.1,137.7,1074.5,138.4,1066.2,138.4z M1808.1,141.6c-4.3,1.2-1.3,0.4-3.2,3.2c-0.7,0.4-1.4,0.7-2.1,1.1v2.1h-1.1
	c0.4,1.1,0.7,2.1,1.1,3.2h-1.1v4.3h-1.1v2.1h-1.1c-0.8,2.4,1,2.8,1.1,4.3h-1.1c-1.7,4.4-1.8,2.7-1.1,7.4h-2.1
	c0.2,3.6,1.5,7.5,0,10.6c-0.7,0.4-1.4,0.7-2.1,1.1v3.2h-1.1c0.4,1.4,0.7,2.8,1.1,4.3h-1.1v2.1h-1.1v4.3h-1.1v5.3h-1.1v1.1
	c0.9,0.3,1.4,1.2,1.1,2c0,0,0,0.1,0,0.1h-1.1v2.1h-1.1v4.3h-1.1c-0.3,2.5,4,8.5,1.1,10.6v1.1h1.1c1.2,1.2,0,0.4,2.1,1.1
	c0.4,2.5,0.7,5,1.1,7.4c0.7-0.4,1.4-0.7,2.1-1.1c0.4,0.7,0.7,1.4,1.1,2.1h4.3c0.4,0.7,0.7,1.4,1.1,2.1c2,0.8,7.7-2,11.7-2.1v-2.1
	l1.1,1.1h1.1v-1.1c0.7,0.4,1.4,0.7,2.1,1.1v-1.1c0.7-0.4,1.4-0.7,2.1-1.1c0.4-1.1,0.7-2.1,1.1-3.2h2.1c0.7-3.9,1.4-7.8,2.1-11.7
	l3.2-1.1c0-4.9,0.4-4.6,2.1-7.4h1.1c-0.4-1.1-0.7-2.1-1.1-3.2c0,0,1.3,0,1.1-2.1h-1.1v-3.2h1.1v-4.3c0.7-0.4,1.4-0.7,2.1-1.1v-4.3
	h1.1c0.8-2.8,0.8-5.7,0-8.5c0.3-0.5,1.5-0.8,2.1-2.1h-2.1c-0.1-1.5,0.3-3,1.1-4.3h-1.1v-1.1c3-2.2,2.8,1.9,4.3-3.2
	c-1-0.8-1.8-1.9-2.1-3.2c0.7-0.4,1.4-0.7,2.1-1.1c0.5-1.8-1-1.9-1.1-2.1c0.4-2.1,0.7-4.3,1.1-6.4h2.1v-1.1c-0.7-0.4-1.4-0.7-2.1-1.1
	c0.4-1.8,0.7-3.5,1.1-5.3h-1.1v-1.1h1.1c0.5-2.7-0.6-3.8-1.1-5.3h-3.2v-3.2c-0.8-0.6-1.5-1.3-2.1-2.1h-4.3c0.4-0.7,0.7-1.4,1.1-2.1
	h-5.3v-1.1c-1.9-1.1-11,2.5-11.7,3.2c-1.4,1-1.1,2.3-2.1,3.2h-2.1C1808.8,139.5,1808.5,140.6,1808.1,141.6z M433.7,190.5
	c-0.4,3.2-0.7,6.4-1.1,9.6h-1.1v3.2h-1.1c-0.5,1.8,1,1.8,1.1,2.1l-1.1,4.3h-2.1c-1.2,2.2-1.7,1.9-2.1,5.3h1.1c0,0-0.7,6.4-1.1,7.4
	h-1.1c0.1,0.9,2.4,4.3,1.1,6.4h-1.1c-1.2,1.2,0,0.4-2.1,1.1c0.1,2.5,0.9,2.7,1.1,4.3l-2.1,1.1c0.4,4.3,0.7,8.5,1.1,12.8l-2.1,1.1
	v1.1h1.1c0.6,2.8-1.5,6.4-1.1,7.4h1.1c1.2,1.2,0,0.4,2.1,1.1v2.1h-1.1l2.1,4.3c4.2-1.6,8-0.1,13.8,0l1.1-3.2l3.2,1.1v-1.1h3.2v-1.1
	c1.4-0.1,1.8,1.4,4.3,1.1v-1.1h1.1l1.1,2.1c3,0.6,2.6-2,3.2-2.1l5.3,1.1v-2.1l9.6,2.1c0.4-0.8,1.3-1.3,2.1-1.1c0.8,1,2,1.4,3.2,1.1
	v-1.1l3.2-1.1c0.4,0.7,0.7,1.4,1.1,2.1h6.4l1.1,1.1c0.4-0.7,0.7-1.4,1.1-2.1c2.4-0.9,4.1,0.7,5.3,1.1v-2.1h1.1v1.1l12.8,1.1
	c2.3-0.6,4.8-2.7,8.5-2.1v1.1l2.1-1.1c1.3,0,2.8,2.1,5.3,1.1c0.4-0.7,0.7-1.4,1.1-2.1h3.2v-1.1h1.1c0.4,0.7,0.7,1.4,1.1,2.1l6.4,1.1
	c0.4-0.7,0.7-1.4,1.1-2.1l7.4-1.1c1-5.6,0.2-3.7-1.1-8.5c-3.9-0.3-4.5-0.9-5.3-4.3h-5.3v-3.2c-2.4-0.2-2.8-0.2-4.3-1.1v-1.1h-3.2
	v-1.1h-1.1c-0.5,0.3-0.2,1.8-2.1,1.1c-0.4-0.7-0.7-1.4-1.1-2.1h-3.2c-0.4-0.7-0.7-1.4-1.1-2.1h-4.3c-3.5-1.3-4.4-2.8-9.6-3.2
	c-0.4-1.1-0.7-2.1-1.1-3.2c-2.2,0-5.8-0.8-6.4,1.1h-1.1v-3.2l-2.1-1.1v-1.1H489c-0.4-0.7-0.7-1.4-1.1-2.1h-2.1v-1.1l-3.2,1.1v-2.1
	c-1.2-1.1-2-0.8-4.3-1.1V216h-1.1c-0.9,0.9-2,1.7-3.2,2.1c-0.8-7.4-2-3.3-6.4-5.3v-1.1c-1.5-0.9-1.8-0.8-4.3-1.1v-2.1
	c-2.8-1.6-3.6-3.4-7.4-4.3V199h-3.2v-2.1h-3.2v-5.3l-7.4-1.1l-1.1-2.1L433.7,190.5z M550.6,255.4c0.4,2.5,0.7,5,1.1,7.4l3.2,2.1
	c0.4,1-2.2,2.1-1.1,4.3l3.2,1.1l-2.1,3.2h1.1c0.7,1.3,1,2.8,1.1,4.3c-1.2,1.2-0.4,0-1.1,2.1h2.1c-0.8,2-1.1,4.2-1.1,6.4h-2.1v6.4
	h1.1c0.4,1.8-1,1.9-1.1,2.1v4.3h1.1c-0.4,0.7-0.7,1.4-1.1,2.1h1.1c-0.4,1.1-0.7,2.1-1.1,3.2h1.1c0.4,1.1,0.7,2.1,1.1,3.2l2.1,1.1
	v2.1h1.1c1.4,1.6,0.5,1.4,3.2,2.1c0.4,1.1,0.7,2.1,1.1,3.2c4.1,0.3,6.3,3.2,9.6,2.1V317h2.1c0.4-0.7,0.7-1.4,1.1-2.1h7.4v-1.1h2.1
	v-1.1l6.4-2.1c1.1-2.1,3.4-4.3,4.3-6.4V300l3.2-2.1v-2.1h1.1c0.4-1.5-0.6,0.4-1.1-1.1v-4.3h-1.1c-2.1-0.5,2.1-1.1,2.1-1.1
	c-0.5-6.7-3.5-10.3-4.3-17h-2.1c-0.4-1.1-0.7-2.1-1.1-3.2l-3.2-2.1V266h-4.3v-3.2c-2.9-0.6-5.2-2.7-7.4-3.2
	c-1.5-0.3,0.4,0.7-1.1,1.1l-7.4-1.1c-0.4-1.1-0.7-2.1-1.1-3.2c-0.5,0.1-13,2.3-15.9,1.1c-0.4-0.7-0.7-1.4-1.1-2.1H550.6z"/>
</svg>
